<?xml version="1.0" encoding="utf-8"?>
<!-- Generator: Adobe Illustrator 16.0.0, SVG Export Plug-In . SVG Version: 6.00 Build 0)  -->
<!DOCTYPE svg PUBLIC "-//W3C//DTD SVG 1.1//EN" "http://www.w3.org/Graphics/SVG/1.1/DTD/svg11.dtd">
<svg version="1.1" id="Capa_1" xmlns="http://www.w3.org/2000/svg" xmlns:xlink="http://www.w3.org/1999/xlink" x="0px" y="0px"
	 width="114px" height="92.367px" viewBox="0 0 114 92.367" enable-background="new 0 0 114 92.367" xml:space="preserve">
<g>
	<path display="none" fill="#FFFFFF" d="M85.946,46.131c0,15.994-12.965,28.959-28.959,28.959
		c-15.996,0-28.963-12.966-28.963-28.959c0-15.995,12.967-28.96,28.963-28.96C72.981,17.171,85.946,30.137,85.946,46.131
		L85.946,46.131z"/>
	<path fill="#98AFCE" d="M81.54,58.984c0,0-0.581,1.487-2.323,3.773c-1.549,2.032-1.02-0.223-1.839,0.192
		c-2.989,1.52-2.131,0.679-2.131,0.679s0.259-1.749,0.195-2.032c-0.195-0.871,0.698-1.585,1.064-1.742
		c0.679-0.29,1.838-0.388,2.226-0.388s0.677-0.29,1.064-0.482c0.389-0.195,0.774,0,0.774,0H81.54L81.54,58.984z"/>
	<path fill="#98AFCE" d="M59.413,24.666l1.414,0.514c0,0,0.387,0.515,0.774,0.901c0.383,0.386,0.255,0.258,0.641,0.642
		c0.386,0.387,1.416,0.516,1.416,0.516s0.643-0.258,0.77-0.645c0.133-0.385,1.677-0.771,1.677-0.771l1.027-0.128
		c0,0,0.516-0.901,0.387-1.546c-0.128-0.641-1.011-3.509-1.011-3.509s3.307,1.244,5.565,2.962c2.934,2.226,7.133,6.115,9.347,11.099
		c1.867,4.219,2.498,8.245,2.542,10.102c0.047,2.253-0.483,3.963-0.871,4.737c-0.386,0.771-1.158,0.864-1.416,1.894
		c-0.255,1.03,0.516,3.731-0.129,4.248c-0.643,0.513-1.515-1.794-1.515-1.149c0,0.644-0.931,0.376-1.059-0.524
		c-0.128-0.902-0.644-2.703-1.158-1.932c-0.516,0.772-0.9,1.803-1.03,2.317c-0.127,0.515,0,0.771-0.513,1.93
		c-0.516,1.157-1.616,4.116-2.387,1.931c-0.771-2.188-1.18-3.901-1.308-4.543c-0.128-0.645,0.158-0.688-0.999-1.204
		c-1.158-0.515-0.763,0.231-2.305-0.413c-1.542-0.642-2.478-3.516-2.478-2.098c0,1.413,0.217,1.722,0.863,2.236
		c0.638,0.515,1.375-0.207,1.888,0.309c0.516,0.515,0.663,1.875,0.275,2.134c-0.383,0.256-1.146,1.134-1.659,1.391
		c-0.516,0.258-2.269,0.728-2.269,0.728s-0.435-1.111-1.207-2.399c-0.771-1.288-1.416-3.475-1.801-3.604
		c-0.387-0.127-0.645,0.386-0.387,0.773c0.258,0.386,1.928,4.245,2.188,4.89c0.257,0.642,0.926,1.331,0.926,1.331l2.19-0.427
		c0,0,0.617,1.154-1.058,3.471c-1.673,2.317-2.059,1.93-2.318,3.089c-0.255,1.158,0.854,0.844,0.854,1.355
		c0,0.518-0.388,2.325-0.774,2.711c-0.386,0.388-1.208,0.113-1.724,0.755c-0.513,0.645-0.074,0.102-0.845,1.132
		c-0.772,1.029-1.263,1.778-1.77,2.05c-1.979,1.06-1.627,0.989-1.838,0.919c-1.488-0.497-1.837-2.404-2.395-3.774
		c-0.68-1.669-0.129-3.989-0.256-4.506c-0.129-0.513-0.516-2.96-1.417-3.73c-0.901-0.771-1.287-0.903-2.317-0.645
		c-1.029,0.259-2.702,0.259-3.731-1.415s-1.416-3.987-0.772-6.435c0.644-2.444,1.03-3.218,1.287-3.604
		c0.256-0.388,1.543-1.801,1.543-1.801s1.932-0.773,3.217-0.773c1.287,0,1.931,1.159,2.189,1.544
		c0.256,0.385,0.297,0.668,0.297,0.668l1.414,0.389c0,0,0.873-0.729,1.259-0.602c0.386,0.13,2.398,0.404,2.398,0.404
		s1.58,0.17,1.58-0.345c0-0.515-1.026-1.416-1.026-1.416l-1.291-1.929c0,0-0.964-0.543-1.16-0.516
		c-0.192,0.027,0.498,1.358,0.498,1.358s-0.225,0.343-0.642,0.188c-0.415-0.154-1.022-2.61-1.022-2.61s-1.476-0.145-1.09,0.499
		c0.386,0.645,0.877,1.063,0.877,1.448c0,0.386-0.983,1.077-1.192,0.918c-0.206-0.159,0.03-0.87-0.386-1.931
		c-0.471-1.195-0.773-1.545-1.543-1.286c-0.775,0.257-1.16,0.513-1.03,0.9c0.129,0.386,0,1.031-0.387,1.159
		c-0.386,0.129-1.158,0.643-1.543,0.772c-0.386,0.129-1.543-0.129-1.673-0.643s-0.901-2.317-0.13-2.574
		c0.773-0.258,1.83-0.308,1.572-1.208c-0.257-0.902-0.016-1.269,0-1.805c0.019-0.538,0.855-1.042,1.756-1.686
		c0.902-0.644,0.902-1.442,0.902-1.827s1.051-1.444,1.568-1.188c0.513,0.259,0.197,0.489,0.711,0.618
		c0.516,0.13,1.116-0.024,1.826-0.284c0.712-0.261,0.784-1.117,0.784-1.117s1.055-0.929,1.568-1.186
		c0.513-0.257-1.294-0.355-1.294-0.355s-0.901-0.773-0.514-1.803c0.383-1.029,0-2.059-0.259-1.157
		c-0.255,0.901-0.643,2.058-0.386,2.701c0.257,0.645,0.901,1.804,0.386,2.059c-0.515,0.259-0.968,0.534-1.352,0.407
		c-0.387-0.129-0.963-0.793-0.963-0.793s-0.258-0.127-0.9,0c-0.644,0.131-1.289-0.255-1.289-0.771c0-0.515,1.891-2.125,2.277-3.156
		C56.668,28.977,58.896,24.536,59.413,24.666L59.413,24.666z"/>
	<path fill="#98AFCE" d="M56.563,20.547c-0.513,0.645-1.544,1.671-1.8,2.058c-0.257,0.386-0.516,1.289-1.287,2.061
		c-0.771,0.771-2.059,1.673-2.059,1.673s-2.061,1.543-2.445,1.8c-0.386,0.259-1.159,1.673-1.546,2.06
		c-0.385,0.385-1.415,1.158-1.415,1.158s-1.158,0.13-1.028-0.514c0.126-0.644,1.671-4.503,2.573-4.89
		c0.9-0.387,0.877-1.622,1.65-2.522c0.772-0.9,1.736-2.223,2.123-2.736c0.386-0.515,3.968-1.137,4.721-1.307
		c0.949-0.213,1.021,0.356,1.021,0.356L56.563,20.547L56.563,20.547z"/>
	<path fill="#98AFCE" d="M49.487,21.705c0,0-1.544,1.417-1.931,1.803c-0.387,0.387-0.258,1.544-1.03,2.187
		c-0.771,0.645-1.156,1.287-1.286,1.673c-0.13,0.386,0,1.159-0.516,1.546c-0.514,0.384-1.287,0.898-1.417,0.384
		c-0.126-0.515,0.26-1.544,0.646-1.93c0.386-0.387,1.674-2.702,1.287-2.961c-0.387-0.258-0.643-0.642-0.901,0
		c-0.259,0.645-1.287,1.03-1.673,2.061c-0.386,1.028-1.288,2.187-1.288,2.187s-2.056,0.644-2.315,1.287
		c-0.258,0.642-0.514,1.029-0.387,1.545c0.128,0.513,0.387,1.03,0.387,1.03s1.801-1.03,1.93-1.674
		c0.13-0.644,1.415-0.386,1.415,0.644s-0.513,2.702-0.385,3.345c0.127,0.643,0.127,2.317-0.128,2.704
		c-0.258,0.385-0.902-0.13-1.929,0.125c-1.031,0.259-1.161,1.931-1.804,2.834c-0.644,0.9-1.03,2.058-1.802,3.344
		c-0.772,1.288-1.672,1.544-2.059,1.802c-0.385,0.258-0.77,0.258-0.9,0.903c-0.129,0.641-0.514,0.641-0.129,1.542
		c0.386,0.903,1.158,0.773,1.288,1.289c0.129,0.515-0.13-0.13-0.13,1.544s0.773,2.96,0.773,2.96s1.404-0.027,1.956,0.333
		c0.571,0.374,0.436,0.928,0.951,2.087s1.227,1.497,2.77,2.526c1.546,1.029,2.635,1.449,3.279,2.223
		c0.644,0.771,1.728-0.415,1.084,2.156c-0.641,2.577-0.644,3.287-0.773,4.831c-0.128,1.542-0.515,1.542-0.257,2.574
		c0.257,1.029-1.674,0.515-2.188-0.515c-0.515-1.03-0.273-1.32-0.789-2.735c-0.749-2.062-0.581-2.533-1.244-3.479
		c-0.899-1.286-1.678-1.98-2.194-3.396c-0.514-1.415-1.436-3.132-1.307-3.646c0.13-0.516,0.367-0.742-0.278-1.516
		c-0.645-0.771-1.396-1.703-1.523-2.089c-0.129-0.386-1.157-2.315-1.03-2.83c0.129-0.515-0.126-0.9-0.126-0.9
		s-3.969-3.915-3.969-5.074c0-1.156,0.047-2.207,0.75-5.094c0.801-3.29,3.604-7.592,6.434-11.196
		c2.832-3.604,5.405-5.404,6.178-5.661c0.771-0.26,2.188-1.03,2.062-0.645c-0.13,0.385-1.585,1.125-0.681,0.998
		c0.899-0.13,1.579,0.676,1.838-0.226c0.257-0.9,0.515-1.157,0.515-1.544c0-0.387,1.416-0.514,1.416-0.514l1.029-0.643
		c0,0,0.901-0.258,0.643,0.257c-0.255,0.513-1.542,1.031-1.542,1.031L49.487,21.705L49.487,21.705z"/>
	<path fill="#98AFCE" d="M66.958,65.359c0,0,1.159-1.159,1.286-0.773c0.128,0.388-0.258,2.19-0.9,2.703
		c-0.646,0.515-1.287,1.674-1.416,0.515S66.958,65.359,66.958,65.359L66.958,65.359z"/>
	<path fill="#98AFCE" d="M53.346,34.061c0.13,0.514,0.13,1.8,0.13,1.8s0.129,0.901,0,1.288c-0.13,0.387-0.388,0.899-0.901,0.899
		c-0.514,0-1.03-0.256-0.901-0.771c0.128-0.515-0.129-1.158,0.128-1.543c0.258-0.387,0.772-1.286,0.772-1.931
		C52.574,33.159,53.346,34.061,53.346,34.061L53.346,34.061z"/>
	<path fill="#98AFCE" d="M52.779,29.14c-0.131,0.387,0.386,1.675-0.904,1.415c-1.286-0.257-2.058-0.257-1.671-0.901
		c0.385-0.644,0.773-1.417,1.286-1.417c0.515,0,1.157,0.516,1.157,0.516"/>
	<path fill="none" stroke="#FFFFFF" stroke-width="0.294" d="M56.476,73.851c12.277,0,22.226-12.266,22.226-27.395
		c0-15.127-9.948-27.392-22.226-27.392c-12.27,0-22.222,12.265-22.222,27.392C34.254,61.585,44.206,73.851,56.476,73.851
		L56.476,73.851z M56.476,73.848c6.577,0,11.904-12.263,11.904-27.392c0-15.127-5.327-27.392-11.904-27.392
		c-6.571,0-11.899,12.265-11.899,27.392C44.576,61.585,49.905,73.848,56.476,73.848L56.476,73.848z M56.476,73.848
		c2.255,0,4.079-12.263,4.079-27.392c0-15.127-1.824-27.392-4.079-27.392c-2.248,0-4.075,12.265-4.075,27.392
		C52.4,61.585,54.228,73.848,56.476,73.848L56.476,73.848z"/>
	<path fill="none" stroke="#4E70A1" stroke-width="0.661" d="M88.804,43.177c-0.324-3.435-1.206-6.711-2.536-9.746l2.662-1.479
		l-2.975-5.338l-2.669,1.487c-2.146-3.106-4.824-5.822-7.91-8l1.511-2.648l-5.306-3.024l-1.508,2.647
		c-3.115-1.406-6.495-2.334-10.043-2.67v-3.037h-6.109v3.037c-3.416,0.326-6.676,1.199-9.696,2.515l-0.006-0.009l-1.469-2.656
		l-5.344,2.962l1.467,2.645l0.017,0.032c-3.077,2.121-5.771,4.754-7.943,7.792l-2.642-1.524l-3.052,5.291l2.637,1.521
		c-1.446,3.163-2.399,6.596-2.743,10.204h-3.035v6.107h3.035c0.326,3.436,1.208,6.711,2.539,9.745l-2.661,1.48l2.967,5.337
		l2.674-1.485c2.147,3.104,4.823,5.821,7.907,7.999l-1.509,2.651l5.307,3.021l1.508-2.646c3.117,1.406,6.495,2.334,10.042,2.669
		v3.039h6.109v-3.039c3.416-0.324,6.675-1.195,9.693-2.518l1.478,2.668l5.343-2.962l-1.482-2.675c3.077-2.12,5.77-4.756,7.941-7.792
		l2.643,1.523l3.053-5.291l-2.634-1.521c1.44-3.159,2.398-6.593,2.739-10.203h3.034v-6.107H88.804L88.804,43.177z M56.977,75.563
		c-16.201,0-29.333-13.131-29.333-29.331c0-16.2,13.132-29.332,29.333-29.332c16.198,0,29.334,13.132,29.334,29.332
		C86.311,62.432,73.175,75.563,56.977,75.563L56.977,75.563z"/>
	<path fill="#005487" d="M67.695,88.199c-1.856-0.249-2.997-1.701-2.997-1.701s1.863-1.047,3.718-0.8
		c1.854,0.249,3.654,1.758,3.654,1.758S69.547,88.444,67.695,88.199L67.695,88.199z"/>
	<path fill="#005487" d="M60.887,89.297c-1.863-0.168-3.064-1.566-3.064-1.566s1.817-1.13,3.682-0.962
		c1.858,0.165,4.202,2.005,4.202,2.005S62.751,89.465,60.887,89.297L60.887,89.297z"/>
	<path fill="#005487" d="M70.342,82.623c-0.823,1.501-0.626,3.667-0.626,3.667s1.984-0.701,2.808-2.204
		c0.824-1.502,1.019-3.888,1.019-3.888S71.164,81.119,70.342,82.623L70.342,82.623z"/>
	<path fill="#005487" d="M63.445,84.232c-1.139,1.315-0.885,3.135-0.885,3.135s2.101-0.311,3.241-1.624
		c1.135-1.313,1.391-3.434,1.391-3.434S64.585,82.92,63.445,84.232L63.445,84.232z"/>
	<path fill="#005487" d="M57.109,86.014c-0.873,1.499-0.28,3.24-0.28,3.24s2.006-0.691,2.877-2.188
		c0.872-1.504,0.848-3.837,0.848-3.837S57.98,84.512,57.109,86.014L57.109,86.014z"/>
	<path fill="#005487" d="M74.407,86.603c-1.922,0.043-3.389-1.175-3.389-1.175s1.659-1.29,3.581-1.333
		c1.921-0.046,4.02,0.938,4.02,0.938S76.328,86.558,74.407,86.603L74.407,86.603z"/>
	<path fill="#005487" d="M79.992,84.088c-1.869,0.544-3.676-0.218-3.676-0.218s1.218-1.645,3.088-2.187
		c1.871-0.547,4.524-0.062,4.524-0.062S81.864,83.543,79.992,84.088L79.992,84.088z"/>
	<path fill="#005487" d="M75.489,81.023c-0.637,1.559-0.298,3.6-0.298,3.6s1.891-0.846,2.527-2.404
		c0.635-1.561,0.346-4.207,0.346-4.207S76.126,79.463,75.489,81.023L75.489,81.023z"/>
	<path fill="#005487" d="M79.623,78.103c-0.358,1.642,0.358,3.799,0.358,3.799s1.716-1.149,2.075-2.794
		c0.357-1.645,0.075-4.715,0.075-4.715S79.984,76.456,79.623,78.103L79.623,78.103z"/>
	<path fill="#005487" d="M85.27,79.821c-1.679,0.974-3.734,0.73-3.734,0.73s0.667-1.821,2.344-2.794
		c1.682-0.971,4.319-1.336,4.319-1.336S86.951,78.849,85.27,79.821L85.27,79.821z"/>
	<path fill="#005487" d="M90.162,74.612c-1.625,0.948-3.744,0.703-3.744,0.703s0.517-1.78,2.144-2.73
		c1.626-0.946,4.7-0.962,4.7-0.962S91.791,73.667,90.162,74.612L90.162,74.612z"/>
	<path fill="#005487" d="M84.069,74.825c-0.213,1.672,0.664,3.339,0.664,3.339s1.606-1.298,1.822-2.967
		c0.214-1.667-0.515-4.817-0.515-4.817S84.283,73.158,84.069,74.825L84.069,74.825z"/>
	<path fill="#005487" d="M93.478,69.951c-1.532,1.092-3.665,1.046-3.665,1.046s0.346-1.823,1.88-2.914
		c1.53-1.096,4.229-1.348,4.229-1.348S95.006,68.856,93.478,69.951L93.478,69.951z"/>
	<path fill="#005487" d="M87.555,70.099c-0.028,1.684,0.896,3.155,0.896,3.155s1.457-1.465,1.485-3.148
		c0.031-1.683-1.245-4.377-1.245-4.377S87.586,68.419,87.555,70.099L87.555,70.099z"/>
	<path fill="#005487" d="M96.021,64.363c-1.363,1.302-3.483,1.554-3.483,1.554s0.091-1.853,1.449-3.15
		c1.366-1.3,4.297-2.147,4.297-2.147S97.383,63.066,96.021,64.363L96.021,64.363z"/>
	<path fill="#005487" d="M97.914,58.691c-1.118,1.518-3.159,2.134-3.159,2.134s-0.234-1.839,0.879-3.356
		c1.118-1.515,3.834-3.123,3.834-3.123S99.028,57.177,97.914,58.691L97.914,58.691z"/>
	<path fill="#005487" d="M97.061,54.394c-0.21,1.869-1.673,3.425-1.673,3.425s-1.12-1.479-0.907-3.348
		c0.21-1.871,1.706-4.239,1.706-4.239S97.272,52.522,97.061,54.394L97.061,54.394z"/>
	<path fill="#005487" d="M90.118,65.744c0.117,1.681,1.216,2.886,1.216,2.886s1.327-1.586,1.211-3.264
		c-0.115-1.679-1.498-4.445-1.498-4.445S90.003,64.068,90.118,65.744L90.118,65.744z"/>
	<path fill="#005487" d="M92.378,60.216c0.105,1.676,1.286,3.089,1.286,3.089s1.33-1.579,1.222-3.26
		c-0.108-1.678-1.605-3.796-1.605-3.796S92.271,58.535,92.378,60.216L92.378,60.216z"/>
	<path fill="#005487" d="M45.849,88.252c1.854-0.245,2.995-1.699,2.995-1.699s-1.863-1.048-3.718-0.798
		c-1.854,0.247-3.657,1.755-3.657,1.755S43.993,88.499,45.849,88.252L45.849,88.252z"/>
	<path fill="#005487" d="M52.653,89.354c1.864-0.168,3.065-1.566,3.065-1.566s-1.818-1.132-3.68-0.964
		c-1.862,0.167-4.203,2.007-4.203,2.007S50.791,89.52,52.653,89.354L52.653,89.354z"/>
	<path fill="#005487" d="M43.2,82.68c0.822,1.501,0.626,3.662,0.626,3.662s-1.986-0.698-2.809-2.199
		c-0.823-1.504-1.014-3.888-1.014-3.888S42.377,81.174,43.2,82.68L43.2,82.68z"/>
	<path fill="#005487" d="M50.096,84.289c1.139,1.313,0.884,3.135,0.884,3.135s-2.102-0.311-3.238-1.624
		c-1.14-1.315-1.392-3.436-1.392-3.436S48.958,82.977,50.096,84.289L50.096,84.289z"/>
	<path fill="#005487" d="M56.432,86.065c0.871,1.501,0.276,3.243,0.276,3.243s-2.002-0.689-2.877-2.188
		c-0.869-1.502-0.847-3.838-0.847-3.838S55.559,84.566,56.432,86.065L56.432,86.065z"/>
	<path fill="#005487" d="M39.136,86.657c1.923,0.043,3.385-1.175,3.385-1.175s-1.658-1.288-3.58-1.333
		c-1.925-0.044-4.018,0.94-4.018,0.94S37.209,86.614,39.136,86.657L39.136,86.657z"/>
	<path fill="#005487" d="M33.548,84.143c1.869,0.544,3.678-0.216,3.678-0.216s-1.223-1.645-3.092-2.188
		c-1.87-0.545-4.522-0.06-4.522-0.06S31.679,83.598,33.548,84.143L33.548,84.143z"/>
	<path fill="#005487" d="M38.051,81.076c0.638,1.561,0.297,3.604,0.297,3.604s-1.889-0.846-2.527-2.406
		c-0.637-1.561-0.347-4.207-0.347-4.207S37.416,79.518,38.051,81.076L38.051,81.076z"/>
	<path fill="#005487" d="M33.917,78.157c0.359,1.642-0.356,3.799-0.356,3.799s-1.717-1.15-2.075-2.794
		c-0.359-1.643-0.077-4.716-0.077-4.716S33.559,76.513,33.917,78.157L33.917,78.157z"/>
	<path fill="#005487" d="M28.271,79.876c1.676,0.973,3.733,0.73,3.733,0.73s-0.667-1.821-2.345-2.794
		c-1.68-0.971-4.315-1.336-4.315-1.336S26.592,78.903,28.271,79.876L28.271,79.876z"/>
	<path fill="#005487" d="M23.377,74.667c1.627,0.947,3.746,0.703,3.746,0.703s-0.516-1.783-2.142-2.729
		c-1.627-0.946-4.703-0.962-4.703-0.962S21.75,73.721,23.377,74.667L23.377,74.667z"/>
	<path fill="#005487" d="M29.471,74.882c0.215,1.67-0.662,3.337-0.662,3.337s-1.608-1.296-1.823-2.967
		c-0.214-1.667,0.514-4.817,0.514-4.817S29.259,73.215,29.471,74.882L29.471,74.882z"/>
	<path fill="#005487" d="M20.065,70.006c1.532,1.094,3.665,1.046,3.665,1.046s-0.349-1.821-1.88-2.914
		c-1.532-1.094-4.232-1.348-4.232-1.348S18.534,68.91,20.065,70.006L20.065,70.006z"/>
	<path fill="#005487" d="M25.985,70.156c0.028,1.68-0.896,3.152-0.896,3.152s-1.456-1.468-1.484-3.15
		c-0.03-1.681,1.246-4.373,1.246-4.373S25.956,68.473,25.985,70.156L25.985,70.156z"/>
	<path fill="#005487" d="M17.521,64.42c1.362,1.298,3.479,1.552,3.479,1.552s-0.086-1.851-1.45-3.15
		c-1.362-1.3-4.292-2.146-4.292-2.146S16.159,63.123,17.521,64.42L17.521,64.42z"/>
	<path fill="#005487" d="M15.629,58.748c1.114,1.515,3.157,2.132,3.157,2.132s0.234-1.839-0.881-3.354
		c-1.115-1.515-3.832-3.123-3.832-3.123S14.513,57.23,15.629,58.748L15.629,58.748z"/>
	<path fill="#005487" d="M16.48,54.448c0.211,1.871,1.674,3.425,1.674,3.425s1.12-1.477,0.907-3.348
		c-0.21-1.869-1.707-4.239-1.707-4.239S16.269,52.579,16.48,54.448L16.48,54.448z"/>
	<path fill="#005487" d="M23.423,65.802c-0.115,1.678-1.216,2.882-1.216,2.882s-1.325-1.585-1.21-3.264
		c0.115-1.678,1.499-4.444,1.499-4.444S23.537,64.123,23.423,65.802L23.423,65.802z"/>
	<path fill="#005487" d="M21.165,60.268c-0.109,1.681-1.286,3.091-1.286,3.091s-1.332-1.58-1.224-3.259
		c0.111-1.678,1.607-3.797,1.607-3.797S21.273,58.592,21.165,60.268L21.165,60.268z"/>
	<path fill="none" stroke="#FFFFFF" stroke-width="0.294" d="M83.552,46.142c0-12.273-12.265-22.224-27.391-22.224
		c-15.13,0-27.394,9.951-27.394,22.224c0,12.275,12.264,22.224,27.394,22.224C71.287,68.366,83.552,58.417,83.552,46.142
		L83.552,46.142z M83.856,46.549c0-6.573-12.265-11.9-27.393-11.9c-15.129,0-27.393,5.328-27.393,11.9
		c0,6.574,12.264,11.904,27.393,11.904C71.592,58.453,83.856,53.123,83.856,46.549L83.856,46.549z M83.856,46.549
		c0-2.25-12.265-4.074-27.393-4.074c-15.129,0-27.393,1.824-27.393,4.074c0,2.252,12.264,4.078,27.393,4.078
		C71.592,50.627,83.856,48.801,83.856,46.549L83.856,46.549z"/>
	<path fill="#005487" d="M15.955,42.87l-0.291-0.14c0.111-0.216,0.203-0.371,0.276-0.467c-0.263-0.008-0.442-0.019-0.539-0.029
		l0.042-0.312c0.14,0.023,0.316,0.064,0.525,0.123c-0.053-0.158-0.099-0.337-0.136-0.537l0.319-0.057
		c0.035,0.19,0.051,0.374,0.045,0.55c0.088-0.075,0.242-0.18,0.458-0.312l0.147,0.282c-0.125,0.068-0.292,0.145-0.503,0.23
		c0.188,0.135,0.33,0.249,0.425,0.343l-0.218,0.228c-0.182-0.195-0.3-0.332-0.356-0.41C16.086,42.542,16.021,42.711,15.955,42.87
		L15.955,42.87z"/>
	<path fill="#005487" d="M18.79,41.228l-2.874-1.823l0.092-0.456l3.373-0.632l-0.095,0.467l-1.017,0.167l-0.266,1.309l0.875,0.532
		L18.79,41.228L18.79,41.228z M17.695,40.077l0.215-1.065l-0.931,0.153c-0.282,0.046-0.516,0.074-0.699,0.091
		c0.196,0.083,0.385,0.18,0.566,0.292L17.695,40.077L17.695,40.077z"/>
	<path fill="#005487" d="M19.569,37.589l-3.053-0.889l0.308-1.052c0.068-0.237,0.135-0.416,0.202-0.532
		c0.092-0.162,0.206-0.291,0.348-0.383c0.184-0.122,0.392-0.192,0.627-0.212c0.235-0.017,0.488,0.013,0.761,0.092
		c0.23,0.068,0.43,0.155,0.592,0.261c0.164,0.106,0.291,0.218,0.384,0.338c0.093,0.117,0.157,0.237,0.196,0.357
		c0.039,0.121,0.053,0.257,0.046,0.409c-0.005,0.153-0.038,0.321-0.09,0.505L19.569,37.589L19.569,37.589z M19.325,37.08l0.19-0.653
		c0.059-0.202,0.084-0.367,0.081-0.492c-0.003-0.125-0.029-0.231-0.078-0.319c-0.067-0.123-0.174-0.237-0.319-0.337
		c-0.148-0.101-0.334-0.183-0.566-0.249c-0.318-0.093-0.579-0.113-0.78-0.057c-0.2,0.054-0.354,0.149-0.457,0.283
		c-0.073,0.097-0.146,0.264-0.214,0.504l-0.188,0.643L19.325,37.08L19.325,37.08z"/>
	<path fill="#005487" d="M21.204,32.563l-2.906-1.288l0.258-0.579l2.361,0.222c0.221,0.021,0.384,0.039,0.492,0.05
		c-0.09-0.079-0.222-0.198-0.397-0.361l-1.712-1.591l0.229-0.517l2.906,1.286l-0.165,0.373l-2.433-1.077l2.059,1.921l-0.155,0.349
		l-2.844-0.256l2.473,1.096L21.204,32.563L21.204,32.563z"/>
	<polygon fill="#005487" points="22.926,28.842 20.148,27.293 21.264,25.295 21.592,25.479 20.682,27.112 21.528,27.583 
		22.382,26.053 22.71,26.236 21.858,27.768 22.801,28.293 23.748,26.596 24.077,26.78 22.926,28.842 	"/>
	<polygon fill="#005487" points="24.581,25.978 21.935,24.216 22.166,23.866 24.5,25.419 25.364,24.118 25.679,24.328 
		24.581,25.978 	"/>
	<polygon fill="#005487" points="26.26,23.548 23.718,21.637 23.969,21.303 26.512,23.212 26.26,23.548 	"/>
	<path fill="#005487" d="M25.94,21.387c-0.398-0.346-0.617-0.724-0.658-1.133c-0.04-0.411,0.088-0.783,0.381-1.121
		c0.191-0.222,0.417-0.375,0.679-0.461c0.26-0.086,0.525-0.092,0.795-0.021c0.27,0.072,0.525,0.211,0.767,0.418
		c0.243,0.212,0.418,0.451,0.525,0.715c0.108,0.266,0.132,0.531,0.074,0.796c-0.057,0.266-0.176,0.502-0.356,0.71
		c-0.195,0.227-0.426,0.381-0.691,0.463c-0.263,0.082-0.528,0.088-0.796,0.017C26.391,21.697,26.151,21.57,25.94,21.387
		L25.94,21.387z M26.23,21.066c0.289,0.251,0.584,0.371,0.886,0.36c0.303-0.011,0.556-0.134,0.758-0.369
		c0.208-0.239,0.294-0.508,0.26-0.809c-0.033-0.3-0.206-0.584-0.515-0.851c-0.194-0.171-0.394-0.286-0.598-0.347
		c-0.203-0.06-0.4-0.061-0.591-0.004c-0.19,0.057-0.355,0.166-0.493,0.325c-0.196,0.225-0.286,0.484-0.272,0.782
		C25.682,20.447,25.869,20.752,26.23,21.066L26.23,21.066z"/>
	<path fill="#005487" d="M29.744,19.453l-2.188-2.307l1.021-0.967c0.204-0.195,0.381-0.324,0.527-0.382
		c0.145-0.061,0.301-0.069,0.461-0.024c0.164,0.044,0.306,0.128,0.427,0.254c0.152,0.164,0.232,0.352,0.232,0.564
		c0.001,0.211-0.094,0.438-0.288,0.679c0.116-0.039,0.215-0.059,0.293-0.061c0.166-0.001,0.348,0.021,0.543,0.068l0.996,0.251
		l-0.379,0.362L30.628,17.7c-0.221-0.055-0.394-0.091-0.521-0.111s-0.228-0.021-0.302-0.007c-0.073,0.014-0.138,0.038-0.196,0.072
		c-0.043,0.025-0.102,0.075-0.18,0.15l-0.353,0.334l0.972,1.024L29.744,19.453L29.744,19.453z M28.825,17.874l0.655-0.621
		c0.139-0.132,0.234-0.25,0.286-0.354s0.068-0.205,0.048-0.308c-0.019-0.102-0.063-0.19-0.133-0.265
		c-0.105-0.109-0.229-0.162-0.373-0.157c-0.146,0.007-0.306,0.09-0.475,0.251l-0.73,0.691L28.825,17.874L28.825,17.874z"/>
	<polygon fill="#005487" points="32.38,17.027 30.413,14.531 32.211,13.115 32.444,13.411 30.976,14.568 31.575,15.329 
		32.952,14.245 33.186,14.54 31.809,15.624 32.477,16.473 34.005,15.271 34.236,15.565 32.38,17.027 	"/>
	<path fill="#005487" d="M34.988,15.014l-1.709-2.678l0.534-0.341l1.845,1.49c0.172,0.138,0.298,0.244,0.382,0.313
		c-0.032-0.115-0.076-0.29-0.132-0.521l-0.546-2.271l0.477-0.306l1.709,2.681L37.206,13.6l-1.432-2.243l0.654,2.74L36.107,14.3
		l-2.23-1.784l1.455,2.279L34.988,15.014L34.988,15.014z"/>
	<polygon fill="#005487" points="39.917,12.139 38.588,9.249 38.971,9.075 40.139,11.621 41.559,10.971 41.716,11.313 
		39.917,12.139 	"/>
	<path fill="#005487" d="M42.202,11.095l0.063-3.401l0.439-0.16l2.293,2.552l-0.45,0.163l-0.67-0.782L42.621,9.92v1.023
		L42.202,11.095L42.202,11.095z M42.615,9.561l1.023-0.369l-0.615-0.717c-0.186-0.218-0.332-0.401-0.441-0.55
		c0.032,0.211,0.046,0.422,0.044,0.637L42.615,9.561L42.615,9.561z"/>
	<path fill="#005487" d="M45.666,9.894L44.854,6.82l1.155-0.306c0.234-0.061,0.432-0.079,0.589-0.054
		c0.158,0.024,0.295,0.092,0.408,0.199c0.115,0.109,0.191,0.234,0.228,0.375c0.035,0.131,0.033,0.265-0.01,0.397
		c-0.04,0.136-0.123,0.258-0.245,0.367c0.197,0.006,0.366,0.062,0.5,0.166c0.135,0.105,0.226,0.247,0.272,0.426
		c0.039,0.145,0.042,0.285,0.013,0.425c-0.026,0.139-0.077,0.255-0.149,0.346c-0.071,0.09-0.171,0.171-0.296,0.242
		c-0.125,0.07-0.289,0.129-0.482,0.181L45.666,9.894L45.666,9.894z M45.602,8.002l0.665-0.176c0.181-0.048,0.308-0.094,0.378-0.137
		c0.097-0.059,0.161-0.13,0.194-0.214c0.034-0.086,0.038-0.182,0.008-0.289c-0.025-0.102-0.073-0.185-0.143-0.248
		c-0.068-0.065-0.154-0.101-0.251-0.105c-0.1-0.004-0.258,0.023-0.481,0.082l-0.615,0.162L45.602,8.002L45.602,8.002z M45.976,9.423
		l0.767-0.203c0.133-0.035,0.225-0.065,0.276-0.088c0.089-0.042,0.158-0.09,0.212-0.146c0.052-0.055,0.089-0.126,0.111-0.211
		c0.021-0.085,0.02-0.177-0.008-0.275c-0.028-0.115-0.085-0.205-0.167-0.274c-0.082-0.07-0.181-0.107-0.293-0.115
		c-0.114-0.005-0.269,0.017-0.465,0.068l-0.712,0.188L45.976,9.423L45.976,9.423z"/>
	<path fill="#005487" d="M48.532,7.573c-0.086-0.521-0.012-0.952,0.219-1.292c0.231-0.34,0.565-0.546,1.008-0.62
		c0.289-0.048,0.561-0.021,0.814,0.078c0.256,0.101,0.466,0.263,0.628,0.492c0.164,0.228,0.271,0.497,0.322,0.812
		c0.052,0.317,0.035,0.612-0.052,0.884C51.384,8.2,51.234,8.419,51.02,8.589c-0.214,0.168-0.457,0.273-0.728,0.318
		c-0.295,0.048-0.571,0.021-0.827-0.083c-0.256-0.104-0.462-0.27-0.623-0.497C48.681,8.1,48.578,7.849,48.532,7.573L48.532,7.573z
		 M48.961,7.512c0.063,0.378,0.213,0.659,0.451,0.842c0.24,0.185,0.513,0.251,0.818,0.201c0.313-0.053,0.553-0.203,0.718-0.457
		c0.166-0.254,0.215-0.581,0.149-0.984c-0.042-0.257-0.123-0.472-0.242-0.648c-0.114-0.175-0.268-0.302-0.449-0.381
		c-0.187-0.076-0.38-0.099-0.586-0.064c-0.294,0.049-0.529,0.192-0.708,0.428C48.933,6.684,48.883,7.04,48.961,7.512L48.961,7.512z"
		/>
	<path fill="#005487" d="M52.695,8.513l-0.217-3.17l1.403-0.097c0.281-0.02,0.499-0.006,0.648,0.04
		c0.152,0.047,0.276,0.139,0.374,0.277C55,5.7,55.056,5.857,55.066,6.03c0.016,0.224-0.042,0.419-0.177,0.583
		c-0.135,0.164-0.352,0.277-0.654,0.34c0.113,0.045,0.201,0.093,0.263,0.14c0.13,0.105,0.256,0.238,0.375,0.4l0.609,0.828
		l-0.523,0.035l-0.465-0.632c-0.136-0.182-0.246-0.321-0.333-0.417c-0.085-0.095-0.163-0.162-0.227-0.198
		c-0.067-0.035-0.132-0.059-0.197-0.069c-0.049-0.007-0.127-0.006-0.233,0.001l-0.487,0.033l0.097,1.411L52.695,8.513L52.695,8.513z
		 M52.994,6.71l0.9-0.061c0.192-0.014,0.339-0.043,0.443-0.09c0.106-0.047,0.185-0.118,0.233-0.208
		c0.052-0.09,0.075-0.187,0.067-0.289c-0.012-0.15-0.073-0.27-0.19-0.357c-0.115-0.088-0.291-0.125-0.526-0.11l-1.001,0.07
		L52.994,6.71L52.994,6.71z"/>
	<path fill="#005487" d="M55.926,8.313l1.268-3.158l0.466,0.007l1.236,3.201l-0.478-0.009L58.07,7.385l-1.337-0.022L56.369,8.32
		L55.926,8.313L55.926,8.313z M56.855,7.025l1.087,0.018l-0.32-0.888c-0.094-0.269-0.167-0.492-0.216-0.67
		c-0.045,0.208-0.106,0.412-0.184,0.611L56.855,7.025L56.855,7.025z"/>
	<polygon fill="#005487" points="59.633,8.415 59.962,5.253 60.389,5.299 61.799,7.957 62.055,5.471 62.455,5.512 62.127,8.675 
		61.699,8.63 60.29,5.972 60.032,8.458 59.633,8.415 	"/>
	<polygon fill="#005487" points="64.019,8.999 64.546,6.245 63.517,6.048 63.588,5.679 66.06,6.152 65.988,6.521 64.958,6.324 
		64.428,9.077 64.019,8.999 	"/>
	<polygon fill="#005487" points="66.368,9.51 67.159,6.432 67.563,6.537 66.775,9.615 66.368,9.51 	"/>
	<path fill="#005487" d="M70.889,7.55l0.396,0.131l-0.577,1.744c-0.1,0.303-0.213,0.533-0.342,0.69
		c-0.127,0.156-0.298,0.259-0.515,0.312c-0.216,0.052-0.469,0.03-0.759-0.066c-0.281-0.093-0.497-0.219-0.643-0.375
		c-0.147-0.159-0.229-0.341-0.246-0.551c-0.014-0.21,0.032-0.476,0.138-0.795l0.577-1.745l0.397,0.133l-0.577,1.744
		c-0.086,0.262-0.126,0.465-0.118,0.604c0.007,0.141,0.06,0.264,0.153,0.371c0.097,0.106,0.231,0.188,0.402,0.246
		c0.291,0.096,0.521,0.098,0.692,0.007c0.165-0.093,0.316-0.328,0.44-0.707L70.889,7.55L70.889,7.55z"/>
	<path fill="#005487" d="M71.271,11.067l1.296-2.903l0.579,0.259l-0.229,2.361c-0.022,0.219-0.038,0.382-0.051,0.49
		c0.078-0.09,0.199-0.221,0.36-0.395l1.597-1.708l0.516,0.231l-1.296,2.901l-0.371-0.166l1.085-2.429l-1.927,2.052l-0.345-0.153
		l0.26-2.845l-1.101,2.47L71.271,11.067L71.271,11.067z"/>
	<path fill="#005487" d="M77.167,14.071l0.65-3.344l0.385,0.242l-0.528,2.395c-0.043,0.192-0.087,0.37-0.137,0.53
		c0.137-0.122,0.277-0.239,0.424-0.35l1.953-1.502l0.363,0.229l-2.74,2.034L77.167,14.071L77.167,14.071z"/>
	<path fill="#005487" d="M78.662,15.009l2.87-1.829l0.372,0.278l-0.855,3.323l-0.386-0.286l0.283-0.989l-1.075-0.798l-0.853,0.565
		L78.662,15.009L78.662,15.009z M80.168,14.507l0.872,0.646l0.257-0.906c0.08-0.275,0.152-0.499,0.215-0.672
		c-0.159,0.143-0.326,0.272-0.505,0.388L80.168,14.507L80.168,14.507z"/>
	<polygon fill="#005487" points="81.581,17.239 83.672,14.847 83.987,15.123 82.145,17.233 83.321,18.26 83.069,18.543 
		81.581,17.239 	"/>
	<polygon fill="#005487" points="83.725,19.162 86.001,16.942 87.6,18.582 87.333,18.844 86.025,17.505 85.329,18.183 
		86.558,19.437 86.287,19.698 85.061,18.444 84.29,19.199 85.646,20.592 85.375,20.854 83.725,19.162 	"/>
	<polygon fill="#005487" points="86.524,22.194 88.683,20.409 88.016,19.6 88.307,19.361 89.911,21.301 89.619,21.54 88.951,20.733 
		86.794,22.519 86.524,22.194 	"/>
	<path fill="#005487" d="M91.752,23.875l0.239,0.345l-1.51,1.047c-0.263,0.184-0.491,0.298-0.687,0.346
		c-0.195,0.049-0.396,0.029-0.601-0.06c-0.203-0.086-0.392-0.255-0.567-0.507c-0.169-0.245-0.264-0.472-0.287-0.687
		c-0.023-0.213,0.021-0.409,0.134-0.586c0.112-0.178,0.31-0.361,0.587-0.554l1.51-1.048l0.238,0.345l-1.508,1.048
		c-0.228,0.155-0.382,0.293-0.459,0.409c-0.081,0.118-0.111,0.248-0.099,0.391c0.011,0.143,0.068,0.288,0.173,0.436
		c0.176,0.255,0.361,0.395,0.549,0.422c0.19,0.029,0.45-0.071,0.778-0.3L91.752,23.875L91.752,23.875z"/>
	<path fill="#005487" d="M89.951,26.94l2.763-1.573l0.541,0.954c0.124,0.215,0.204,0.387,0.241,0.515
		c0.053,0.18,0.067,0.352,0.032,0.517c-0.04,0.216-0.134,0.416-0.285,0.597c-0.151,0.18-0.349,0.34-0.595,0.481
		c-0.211,0.119-0.411,0.2-0.602,0.245c-0.191,0.043-0.359,0.056-0.509,0.04c-0.151-0.017-0.281-0.053-0.393-0.111
		c-0.114-0.055-0.224-0.14-0.325-0.249c-0.105-0.112-0.206-0.251-0.301-0.418L89.951,26.94L89.951,26.94z M90.488,27.118
		l0.335,0.592c0.104,0.183,0.202,0.316,0.294,0.401c0.093,0.085,0.189,0.14,0.286,0.167c0.135,0.037,0.289,0.039,0.463,0.004
		c0.173-0.034,0.366-0.11,0.573-0.229c0.289-0.165,0.484-0.339,0.583-0.522c0.104-0.183,0.14-0.358,0.117-0.524
		c-0.02-0.119-0.089-0.289-0.214-0.507l-0.33-0.581L90.488,27.118L90.488,27.118z"/>
	<polygon fill="#005487" points="91.702,30.165 94.563,28.776 94.746,29.154 91.885,30.542 91.702,30.165 	"/>
	<polygon fill="#005487" points="92.381,31.564 95.323,30.364 95.482,30.761 93.806,33.255 96.117,32.313 96.268,32.684 
		93.325,33.885 93.162,33.486 94.845,30.992 92.529,31.937 92.381,31.564 	"/>
	<polygon fill="#005487" points="93.69,34.916 96.728,33.968 97.406,36.155 97.048,36.268 96.491,34.483 95.567,34.771 
		96.088,36.443 95.727,36.556 95.206,34.884 94.176,35.204 94.754,37.061 94.395,37.173 93.69,34.916 	"/>
	<path fill="#005487" d="M94.646,38.079l3.107-0.673l0.133,0.62l-2.037,1.213c-0.192,0.111-0.333,0.195-0.429,0.247
		c0.121,0.011,0.299,0.03,0.535,0.058l2.318,0.279l0.119,0.553l-3.106,0.671l-0.083-0.399l2.599-0.561l-2.797-0.34l-0.078-0.37
		l2.445-1.472l-2.641,0.571L94.646,38.079L94.646,38.079z"/>
	<path fill="#005487" d="M97.976,41.532l0.316,0.057c-0.05,0.238-0.094,0.412-0.139,0.524c0.256-0.064,0.43-0.104,0.526-0.117
		l0.043,0.311c-0.142,0.017-0.318,0.024-0.537,0.026c0.098,0.137,0.189,0.296,0.277,0.478l-0.29,0.14
		c-0.085-0.172-0.149-0.346-0.195-0.518c-0.063,0.099-0.181,0.241-0.355,0.427l-0.218-0.233c0.102-0.099,0.241-0.219,0.422-0.359
		c-0.217-0.078-0.386-0.15-0.503-0.214l0.147-0.279c0.229,0.137,0.38,0.236,0.456,0.299C97.938,41.885,97.952,41.705,97.976,41.532
		L97.976,41.532z"/>
	<polygon fill="#005487" points="38.123,65.375 40.146,63.245 41.587,64.613 41.348,64.864 40.189,63.763 39.56,64.425 
		40.563,65.377 40.325,65.629 39.323,64.677 38.405,65.643 38.123,65.375 	"/>
	<path fill="#005487" d="M41.506,66.522c0.278-0.399,0.604-0.638,0.977-0.712c0.375-0.075,0.727,0.007,1.068,0.242
		c0.223,0.157,0.384,0.35,0.488,0.581c0.104,0.231,0.136,0.474,0.097,0.728c-0.039,0.257-0.143,0.504-0.31,0.744
		c-0.173,0.245-0.375,0.429-0.608,0.551c-0.233,0.123-0.475,0.171-0.725,0.146c-0.25-0.029-0.479-0.115-0.688-0.263
		c-0.227-0.159-0.389-0.354-0.491-0.588c-0.102-0.235-0.133-0.479-0.092-0.732C41.264,66.965,41.359,66.733,41.506,66.522
		L41.506,66.522z M41.829,66.756c-0.202,0.291-0.284,0.572-0.243,0.849c0.039,0.276,0.175,0.496,0.411,0.66
		c0.238,0.167,0.494,0.222,0.767,0.163c0.272-0.062,0.517-0.245,0.733-0.556c0.138-0.193,0.223-0.388,0.26-0.581
		c0.036-0.192,0.02-0.374-0.052-0.542c-0.071-0.17-0.186-0.311-0.345-0.422c-0.225-0.156-0.473-0.215-0.743-0.175
		C42.346,66.193,42.087,66.396,41.829,66.756L41.829,66.756z"/>
	<path fill="#005487" d="M47.402,68.31l0.349,0.17l-0.744,1.524c-0.127,0.266-0.261,0.463-0.395,0.59
		c-0.138,0.127-0.307,0.201-0.51,0.225c-0.205,0.021-0.431-0.03-0.683-0.152c-0.248-0.12-0.426-0.261-0.542-0.422
		c-0.115-0.161-0.168-0.34-0.156-0.533c0.012-0.194,0.086-0.431,0.224-0.712l0.742-1.524l0.349,0.171l-0.74,1.521
		c-0.112,0.229-0.173,0.408-0.184,0.537c-0.01,0.132,0.023,0.25,0.095,0.358c0.077,0.109,0.188,0.2,0.335,0.272
		c0.255,0.122,0.465,0.154,0.629,0.091c0.165-0.063,0.328-0.261,0.49-0.595L47.402,68.31L47.402,68.31z"/>
	<polygon fill="#005487" points="48.093,71.764 48.956,68.954 49.336,69.071 50.136,71.732 50.815,69.525 51.167,69.634 
		50.307,72.441 49.927,72.326 49.126,69.666 48.446,71.873 48.093,71.764 	"/>
	<path fill="#005487" d="M52.015,72.827l0.419-2.909l1.002,0.145c0.227,0.034,0.397,0.073,0.513,0.118
		c0.161,0.062,0.293,0.152,0.395,0.27c0.136,0.152,0.228,0.334,0.275,0.547c0.047,0.211,0.054,0.447,0.014,0.708
		c-0.031,0.22-0.085,0.412-0.161,0.576c-0.077,0.163-0.165,0.294-0.261,0.395c-0.096,0.1-0.198,0.174-0.301,0.225
		c-0.107,0.05-0.229,0.081-0.368,0.095c-0.141,0.014-0.3,0.009-0.477-0.016L52.015,72.827L52.015,72.827z M52.448,72.542
		l0.622,0.088c0.194,0.027,0.345,0.032,0.46,0.012c0.116-0.021,0.211-0.057,0.284-0.113c0.103-0.077,0.193-0.19,0.268-0.338
		c0.07-0.147,0.125-0.329,0.156-0.549c0.044-0.305,0.027-0.547-0.048-0.724c-0.078-0.18-0.183-0.307-0.318-0.381
		c-0.097-0.055-0.261-0.098-0.492-0.132l-0.61-0.089L52.448,72.542L52.448,72.542z"/>
	<polygon fill="#005487" points="56.068,73.27 56.052,70.33 58.163,70.321 58.164,70.666 56.443,70.675 56.448,71.575 
		58.059,71.568 58.06,71.913 56.451,71.923 56.455,72.923 58.245,72.914 58.246,73.258 56.068,73.27 	"/>
	<path fill="#005487" d="M59.865,73.134l-0.447-2.903l1.003-0.154c0.225-0.036,0.4-0.048,0.522-0.038
		c0.174,0.011,0.325,0.059,0.461,0.143c0.17,0.104,0.312,0.252,0.417,0.442c0.108,0.19,0.182,0.413,0.224,0.674
		c0.032,0.22,0.038,0.419,0.01,0.599c-0.023,0.177-0.068,0.326-0.133,0.453c-0.063,0.123-0.14,0.225-0.223,0.302
		c-0.088,0.079-0.194,0.146-0.326,0.199c-0.13,0.055-0.283,0.096-0.459,0.121L59.865,73.134L59.865,73.134z M60.198,72.732
		l0.619-0.096c0.193-0.029,0.341-0.07,0.442-0.122c0.105-0.053,0.185-0.116,0.238-0.19c0.076-0.106,0.131-0.24,0.159-0.401
		c0.025-0.161,0.022-0.352-0.011-0.572c-0.048-0.304-0.134-0.53-0.258-0.678c-0.127-0.147-0.264-0.238-0.416-0.272
		c-0.108-0.024-0.278-0.018-0.507,0.019l-0.612,0.093L60.198,72.732L60.198,72.732z"/>
	<path fill="#005487" d="M66.964,71.311l-0.332,0.129l-0.84-2.139c-0.05,0.106-0.128,0.227-0.228,0.356
		c-0.101,0.129-0.197,0.23-0.286,0.311l-0.128-0.324c0.154-0.161,0.275-0.334,0.367-0.513c0.091-0.182,0.144-0.343,0.154-0.483
		l0.216-0.086L66.964,71.311L66.964,71.311z"/>
	<path fill="#005487" d="M68.489,69.886l0.289-0.192c0.102,0.127,0.211,0.204,0.317,0.229c0.107,0.025,0.219,0.005,0.332-0.057
		c0.097-0.055,0.169-0.122,0.219-0.206c0.051-0.084,0.077-0.177,0.084-0.276c0.005-0.101-0.01-0.221-0.05-0.365
		c-0.037-0.144-0.092-0.279-0.162-0.411c-0.01-0.014-0.021-0.034-0.036-0.061c-0.009,0.134-0.049,0.263-0.126,0.385
		c-0.073,0.12-0.175,0.218-0.301,0.286c-0.212,0.118-0.433,0.139-0.665,0.063c-0.23-0.075-0.418-0.24-0.557-0.492
		c-0.143-0.263-0.18-0.515-0.119-0.758c0.07-0.244,0.219-0.429,0.447-0.556c0.167-0.09,0.345-0.129,0.531-0.113
		c0.187,0.014,0.362,0.087,0.525,0.214c0.165,0.129,0.33,0.349,0.504,0.666c0.182,0.329,0.289,0.61,0.325,0.847
		c0.033,0.233,0.011,0.439-0.074,0.616c-0.088,0.182-0.223,0.322-0.412,0.427c-0.203,0.108-0.396,0.143-0.585,0.1
		C68.791,70.189,68.627,70.074,68.489,69.886L68.489,69.886z M69.155,68.042c-0.097-0.184-0.224-0.302-0.38-0.358
		c-0.152-0.055-0.297-0.043-0.435,0.032c-0.14,0.074-0.229,0.199-0.27,0.372c-0.038,0.172-0.008,0.347,0.092,0.53
		c0.091,0.165,0.211,0.272,0.365,0.322c0.151,0.05,0.303,0.034,0.447-0.046c0.145-0.079,0.235-0.197,0.275-0.349
		C69.287,68.392,69.256,68.224,69.155,68.042L69.155,68.042z"/>
	<path fill="#005487" d="M70.803,67.656c-0.207-0.283-0.341-0.53-0.407-0.744c-0.068-0.215-0.077-0.408-0.032-0.582
		c0.049-0.175,0.156-0.324,0.329-0.449c0.129-0.093,0.259-0.147,0.393-0.166c0.132-0.021,0.267-0.002,0.397,0.05
		c0.132,0.053,0.267,0.134,0.401,0.247c0.137,0.114,0.293,0.288,0.462,0.524c0.202,0.279,0.339,0.526,0.403,0.739
		c0.07,0.216,0.078,0.408,0.033,0.585c-0.047,0.175-0.155,0.324-0.331,0.449c-0.226,0.166-0.466,0.216-0.715,0.146
		C71.437,68.368,71.127,68.104,70.803,67.656L70.803,67.656z M71.1,67.437c0.285,0.395,0.52,0.621,0.704,0.685
		c0.184,0.062,0.343,0.046,0.475-0.05c0.133-0.098,0.2-0.242,0.197-0.438c-0.004-0.195-0.147-0.49-0.431-0.88
		c-0.282-0.393-0.518-0.621-0.704-0.683c-0.181-0.065-0.343-0.048-0.478,0.052c-0.134,0.096-0.199,0.231-0.197,0.401
		C70.671,66.742,70.815,67.047,71.1,67.437L71.1,67.437z"/>
	<path fill="#005487" d="M74.143,63.907l-0.24,0.266c-0.119-0.079-0.225-0.125-0.31-0.132c-0.144-0.007-0.266,0.037-0.369,0.134
		c-0.087,0.08-0.138,0.173-0.16,0.279c-0.025,0.139-0.005,0.286,0.054,0.449c0.061,0.158,0.192,0.347,0.39,0.564
		c-0.025-0.156-0.017-0.299,0.031-0.433c0.048-0.132,0.122-0.245,0.223-0.341c0.175-0.163,0.384-0.238,0.628-0.225
		c0.246,0.014,0.464,0.125,0.657,0.329c0.123,0.134,0.211,0.286,0.263,0.456c0.049,0.17,0.054,0.333,0.009,0.489
		c-0.043,0.157-0.128,0.295-0.257,0.415c-0.221,0.204-0.477,0.293-0.764,0.259c-0.291-0.031-0.607-0.233-0.954-0.604
		c-0.39-0.415-0.594-0.786-0.616-1.117c-0.02-0.291,0.082-0.54,0.31-0.754c0.169-0.156,0.352-0.24,0.548-0.247
		C73.781,63.692,73.966,63.76,74.143,63.907L74.143,63.907z M73.935,65.842c0.085,0.091,0.186,0.159,0.302,0.207
		c0.115,0.047,0.229,0.059,0.335,0.038c0.109-0.021,0.203-0.065,0.281-0.138c0.111-0.107,0.165-0.241,0.161-0.404
		c-0.007-0.163-0.079-0.322-0.222-0.477c-0.14-0.149-0.286-0.229-0.448-0.24c-0.155-0.014-0.297,0.039-0.416,0.152
		c-0.119,0.108-0.181,0.247-0.183,0.41C73.74,65.554,73.804,65.704,73.935,65.842L73.935,65.842z"/>
	<polygon fill="#005487" points="33.073,36.74 35.895,36.74 35.895,50.67 33.073,50.67 33.073,36.74 	"/>
	<path fill="#005487" d="M51.099,47.532c-0.139,0.414-0.435,1.359-1.263,2.169c-1.361,1.322-3.295,1.381-4.103,1.381
		c-3.02,0-4.381-1.225-4.972-1.814c-1.895-1.874-2.092-4.202-2.092-5.485c0-4.598,3.079-7.516,7.162-7.516
		c1.54,0,3.098,0.355,4.163,1.44c0.829,0.828,0.967,1.598,1.085,2.169l-0.789,0.236c-0.218-0.373-0.414-0.73-0.712-1.025
		c-0.57-0.591-1.599-1.086-2.92-1.086c-2.643,0-4.99,1.954-4.99,5.663c0,3.096,1.736,5.683,4.813,5.683
		c2.468,0,3.473-1.56,3.828-2.115L51.099,47.532L51.099,47.532z"/>
	<path fill="#005487" d="M66.677,43.665c0,3.176-1.52,7.417-6.926,7.417c-5.167,0-6.787-4.005-6.787-7.241
		c0-3.492,1.62-7.535,6.807-7.535C65.275,36.326,66.677,40.625,66.677,43.665L66.677,43.665z M56.022,43.447
		c0,1.085,0.021,5.78,3.769,5.78c3.868,0,3.868-4.537,3.868-5.485c0-4.123-1.817-5.603-3.868-5.583
		C57.325,38.181,56.022,40.349,56.022,43.447L56.022,43.447z"/>
	<polygon fill="#005487" points="69.413,36.74 72.213,36.74 72.213,42.461 78.072,42.461 78.072,36.74 80.876,36.74 80.876,50.67 
		78.072,50.67 78.072,44.354 72.213,44.354 72.213,50.67 69.413,50.67 69.413,36.74 	"/>
</g>
</svg>
