<?xml version="1.0" encoding="utf-8"?>
<!-- Generator: Adobe Illustrator 23.0.1, SVG Export Plug-In . SVG Version: 6.00 Build 0)  -->
<svg version="1.1" id="man" xmlns="http://www.w3.org/2000/svg" xmlns:xlink="http://www.w3.org/1999/xlink" x="0px" y="0px"
	 viewBox="0 0 68 150" style="enable-background:new 0 0 68 150;" xml:space="preserve">
<style type="text/css">
	.st0{fill:#449FA2;}
</style>
<path id="head" class="st0" d="M34,0.4c-9.4,0-16.9,7.7-16.9,17.1s7.6,17,17,17c9.3,0,16.9-7.6,16.9-17C51.1,8,43.5,0.4,34,0.4
	C34.1,0.4,34.1,0.4,34,0.4z M34,27.7c-5.6,0-10.2-4.6-10.2-10.2S28.4,7.2,34,7.2s10.2,4.6,10.2,10.2l0,0
	C44.2,23.1,39.7,27.6,34,27.7z"/>
<path id="body" class="st0" d="M57.6,36.6l-0.2-0.1l-8.8-2.3c-1.2-0.3-2.4,0-3.2,0.9L34.1,46.3L22.9,35.1c-0.8-0.9-2.1-1.2-3.2-0.9
	l-8.8,2.3l-0.2,0.1c-6.3,2.1-10.5,8-10.5,14.6v34.1c0,8.1,5.7,15.1,13.6,16.7v44.6c0,1.9,1.5,3.4,3.4,3.4c0,0,0,0,0,0h34
	c1.9,0,3.4-1.5,3.4-3.4c0,0,0,0,0,0V102c7.9-1.6,13.6-8.6,13.6-16.7V51.2C68,44.5,63.8,38.7,57.6,36.6z M54.5,94.9V58
	c0.1-1.9-1.3-3.5-3.2-3.6c-1.9-0.1-3.5,1.3-3.6,3.2c0,0.1,0,0.2,0,0.4v85.3H37.5V92.1c0.1-1.9-1.3-3.5-3.2-3.6
	c-1.9-0.1-3.5,1.3-3.6,3.2c0,0.1,0,0.2,0,0.4v51.2H20.5V58c0.1-1.9-1.3-3.5-3.2-3.6s-3.5,1.3-3.6,3.2c0,0.1,0,0.2,0,0.4v36.9
	c-4.1-1.4-6.8-5.3-6.8-9.6V51.2c0-3.7,2.3-6.9,5.8-8.1l6.8-1.7l12.2,12.3c1.3,1.3,3.5,1.3,4.8,0c0,0,0,0,0,0l12.2-12.3l6.8,1.7
	c3.5,1.2,5.8,4.5,5.8,8.1v34.1C61.2,89.6,58.5,93.4,54.5,94.9L54.5,94.9z"/>
</svg>
