<?xml version="1.0" encoding="utf-8"?>
<!-- Generator: Adobe Illustrator 16.0.0, SVG Export Plug-In . SVG Version: 6.00 Build 0)  -->
<!DOCTYPE svg PUBLIC "-//W3C//DTD SVG 1.1//EN" "http://www.w3.org/Graphics/SVG/1.1/DTD/svg11.dtd">
<svg version="1.1" id="Capa_1" xmlns="http://www.w3.org/2000/svg" xmlns:xlink="http://www.w3.org/1999/xlink" x="0px" y="0px"
	 width="325.676px" height="147.864px" viewBox="0 0 325.676 147.864" enable-background="new 0 0 325.676 147.864"
	 xml:space="preserve">
<g display="none">
	<g display="inline">
		<path fill="#CAD226" d="M46.39,24.521c1.832-1.298,4.069-2.061,6.486-2.061c6.202,0,11.229,5.028,11.229,11.23
			c0,6.203-5.027,11.23-11.229,11.23c-6.461,0-11.698,5.237-11.698,11.698c0,6.46,5.237,11.698,11.698,11.698
			c6.46,0,11.698-5.238,11.698-11.698c0-6.203,5.027-11.23,11.229-11.23s11.23,5.028,11.23,11.23c0,6.202-5.028,11.23-11.23,11.23
			h-6.083c-3.101,0-5.615,2.514-5.615,5.615v6.083c0,6.201-5.027,11.229-11.229,11.229s-11.23-5.028-11.23-11.229v-6.083
			c0-3.101-2.514-5.615-5.615-5.615h-6.083c-6.202,0-11.23-5.028-11.23-11.23c0-6.203,5.028-11.23,11.23-11.23h6.083
			c3.102,0,5.615-2.514,5.615-5.615v-7.955c0-3.101-2.514-5.615-5.615-5.615h-3.743c-3.102,0-5.615-2.514-5.615-5.615
			c0-3.102,2.514-5.615,5.615-5.615c2.948,0,5.342,2.272,5.594,5.16c0.192,2.907,2.638,5.2,5.599,5.2
			C44.545,25.333,45.541,25.037,46.39,24.521z"/>
	</g>
	<g display="inline">
		<rect fill="none" width="325.676" height="147.864"/>
		<path fill-rule="evenodd" clip-rule="evenodd" fill="#004277" d="M88.597,119.631v-7.185c0-4.789-2.83-6.063-6.282-6.063
			c-3.421,0-6.282,1.274-6.282,6.063v7.185c0,4.789,2.83,6.096,6.282,6.096C85.735,125.727,88.597,124.42,88.597,119.631z
			 M85.486,119.631c0,2.488-0.87,3.545-3.172,3.545c-2.301,0-3.172-1.057-3.172-3.545v-7.185c0-2.487,0.871-3.514,3.172-3.514
			c2.302,0,3.172,1.026,3.172,3.514V119.631z"/>
		<path fill-rule="evenodd" clip-rule="evenodd" fill="#004277" d="M101.129,124.701l-0.373-2.177
			c-1.15,0.436-2.675,0.902-3.794,0.902c-2.021,0-2.675-1.09-2.675-3.297v-2.769c0-2.208,0.653-3.327,2.675-3.327
			c1.119,0,2.644,0.467,3.794,0.901l0.373-2.177c-1.088-0.467-2.644-0.995-4.167-0.995c-2.955,0-5.536,1.088-5.536,5.567v2.799
			c0,4.479,2.581,5.598,5.536,5.598C98.485,125.727,100.041,125.167,101.129,124.701z"/>
		<path fill-rule="evenodd" clip-rule="evenodd" fill="#004277" d="M112.655,124.701l-0.373-2.177
			c-1.15,0.436-2.675,0.902-3.794,0.902c-2.021,0-2.675-1.09-2.675-3.297v-2.769c0-2.208,0.653-3.327,2.675-3.327
			c1.119,0,2.644,0.467,3.794,0.901l0.373-2.177c-1.089-0.467-2.644-0.995-4.167-0.995c-2.955,0-5.536,1.088-5.536,5.567v2.799
			c0,4.479,2.581,5.598,5.536,5.598C110.012,125.727,111.566,125.167,112.655,124.701z"/>
		<path fill-rule="evenodd" clip-rule="evenodd" fill="#004277" d="M127.509,125.354v-2.178c0,0-0.342,0.094-0.809,0.094
			c-0.528,0-0.839-0.124-0.839-0.934v-10.262H123v9.982c-0.653,0.871-1.897,1.369-2.955,1.369c-1.71,0-2.146-1.151-2.146-2.924
			v-6.221c0-1.243-0.312-2.207-0.312-2.207h-2.86c0,0,0.311,0.964,0.311,2.207v6.252c0,3.918,1.71,5.193,4.479,5.193
			c1.741,0,3.172-0.56,4.229-1.555c0.28,1.025,0.964,1.306,2.177,1.306C126.607,125.478,127.509,125.354,127.509,125.354z"/>
		<path fill-rule="evenodd" clip-rule="evenodd" fill="#004277" d="M140.862,120.129v-2.737c0-3.888-1.897-5.629-4.571-5.629
			c-1.648,0-3.049,0.56-4.105,1.586c-0.28-1.089-1.058-1.337-2.178-1.337c-0.684,0-1.586,0.124-1.586,0.124v2.177
			c0,0,0.312-0.093,0.777-0.093c0.529,0,0.871,0.124,0.871,0.933v16.452h2.861v-6.345c0.746,0.249,1.556,0.467,2.426,0.467
			C138.312,125.727,140.862,124.608,140.862,120.129z M138.001,120.129c0,2.207-0.622,3.297-2.644,3.297
			c-0.746,0-1.586-0.25-2.426-0.498v-7.526c0.685-0.871,1.896-1.337,2.924-1.337c1.71,0,2.146,1.43,2.146,3.327V120.129z"/>
		<path fill-rule="evenodd" clip-rule="evenodd" fill="#004277" d="M156.322,125.354v-2.178c0,0-0.311,0.094-0.777,0.094
			c-0.528,0-0.871-0.124-0.871-0.934v-10.045l-1.461-0.186c-1.151-0.125-2.581-0.343-3.826-0.343c-2.954,0-5.535,1.088-5.535,5.567
			v2.736c0,3.888,1.928,5.66,4.603,5.66c1.617,0,3.048-0.56,4.105-1.586c0.28,1.088,1.058,1.337,2.177,1.337
			C155.421,125.478,156.322,125.354,156.322,125.354z M151.813,122.057c-0.684,0.871-1.928,1.337-2.954,1.337
			c-1.71,0-2.146-1.43-2.146-3.327v-2.736c0-2.209,0.622-3.266,2.644-3.266c0.746,0,1.772,0.093,2.456,0.217V122.057z"/>
		<path fill-rule="evenodd" clip-rule="evenodd" fill="#004277" d="M166.547,125.074l-0.342-2.177c0,0-2.83,0.249-3.422,0.249
			c-0.933,0-1.367-0.156-1.367-0.933v-7.838h4.136v-2.301h-4.136v-3.889l-2.861,0.777v13.094c0,2.302,0.777,3.483,2.985,3.483
			C162.939,125.541,166.174,125.136,166.547,125.074z"/>
		<path fill-rule="evenodd" clip-rule="evenodd" fill="#004277" d="M171.909,109.275v-3.639h-2.985v3.639H171.909z M172.158,125.417
			c0,0-0.311-0.686-0.311-1.932v-11.437h-2.861v11.437c0,1.246,0.311,1.932,0.311,1.932H172.158z"/>
		<path fill-rule="evenodd" clip-rule="evenodd" fill="#004277" d="M186.27,120.129v-2.799c0-4.447-2.457-5.567-5.412-5.567
			c-2.954,0-5.38,1.12-5.38,5.567v2.799c0,4.447,2.426,5.598,5.38,5.598C183.813,125.727,186.27,124.577,186.27,120.129z
			 M183.408,120.098c0,1.99-0.436,3.328-2.551,3.328c-2.114,0-2.519-1.338-2.519-3.328v-2.768c0-1.991,0.404-3.297,2.519-3.297
			c2.115,0,2.551,1.306,2.551,3.297V120.098z"/>
		<path fill-rule="evenodd" clip-rule="evenodd" fill="#004277" d="M200.988,125.417c0,0-0.312-0.965-0.312-2.209v-6.251
			c0-3.918-1.741-5.193-4.51-5.193c-1.741,0-3.141,0.56-4.198,1.555c-0.279-1.026-0.964-1.306-2.177-1.306
			c-0.684,0-1.586,0.124-1.586,0.124v2.177c0,0,0.311-0.093,0.777-0.093c0.529,0,0.87,0.124,0.87,0.933v10.264h2.862v-9.983
			c0.652-0.871,1.896-1.368,2.954-1.368c1.711,0,2.146,1.15,2.146,2.923v6.22c0,1.244,0.311,2.209,0.311,2.209H200.988z"/>
		<path fill-rule="evenodd" clip-rule="evenodd" fill="#004277" d="M216.362,125.354v-2.178c0,0-0.312,0.094-0.777,0.094
			c-0.528,0-0.871-0.124-0.871-0.934v-10.045l-1.462-0.186c-1.15-0.125-2.58-0.343-3.825-0.343c-2.954,0-5.535,1.088-5.535,5.567
			v2.736c0,3.888,1.928,5.66,4.603,5.66c1.617,0,3.048-0.56,4.105-1.586c0.28,1.088,1.057,1.337,2.177,1.337
			C215.461,125.478,216.362,125.354,216.362,125.354z M211.854,122.057c-0.685,0.871-1.929,1.337-2.955,1.337
			c-1.71,0-2.146-1.43-2.146-3.327v-2.736c0-2.209,0.622-3.266,2.644-3.266c0.746,0,1.772,0.093,2.457,0.217V122.057z"/>
		<path fill-rule="evenodd" clip-rule="evenodd" fill="#004277" d="M222.047,125.417c0,0-0.312-0.686-0.312-1.929v-17.852h-2.861
			v17.852c0,1.243,0.312,1.929,0.312,1.929H222.047z"/>
		<polygon fill-rule="evenodd" clip-rule="evenodd" fill="#004277" points="244.076,125.417 244.076,106.694 240.936,106.694 
			240.936,114.313 234.342,114.313 234.342,106.694 231.232,106.694 231.232,125.417 234.342,125.417 234.342,116.646 
			240.936,116.646 240.936,125.417 		"/>
		<path fill-rule="evenodd" clip-rule="evenodd" fill="#004277" d="M257.978,115.837c0-2.861-2.364-4.074-5.163-4.074
			c-2.954,0-5.473,1.12-5.473,5.567v2.799c0,4.479,2.487,5.598,5.442,5.598c1.399,0,3.358-0.249,4.976-0.622l-0.187-2.053
			c-1.058,0.218-3.079,0.374-4.789,0.374c-2.115,0-2.582-1.245-2.582-3.111v-0.124l2.955-0.249
			C256.018,119.694,257.978,118.823,257.978,115.837z M255.179,115.899c0,1.182-0.436,1.929-2.426,2.115l-2.551,0.218v-0.901
			c0-2.084,0.561-3.297,2.644-3.297C254.588,114.034,255.179,114.749,255.179,115.899z"/>
		<path fill-rule="evenodd" clip-rule="evenodd" fill="#004277" d="M273.122,125.354v-2.178c0,0-0.312,0.094-0.778,0.094
			c-0.528,0-0.87-0.124-0.87-0.934v-10.045l-1.462-0.186c-1.15-0.125-2.581-0.343-3.825-0.343c-2.954,0-5.536,1.088-5.536,5.567
			v2.736c0,3.888,1.929,5.66,4.604,5.66c1.617,0,3.048-0.56,4.105-1.586c0.279,1.088,1.057,1.337,2.176,1.337
			C272.22,125.478,273.122,125.354,273.122,125.354z M268.612,122.057c-0.685,0.871-1.928,1.337-2.954,1.337
			c-1.711,0-2.146-1.43-2.146-3.327v-2.736c0-2.209,0.623-3.266,2.645-3.266c0.745,0,1.771,0.093,2.456,0.217V122.057z"/>
		<path fill-rule="evenodd" clip-rule="evenodd" fill="#004277" d="M278.806,125.417c0,0-0.311-0.686-0.311-1.929v-17.852h-2.862
			v17.852c0,1.243,0.312,1.929,0.312,1.929H278.806z"/>
		<path fill-rule="evenodd" clip-rule="evenodd" fill="#004277" d="M290.311,125.074l-0.342-2.177c0,0-2.83,0.249-3.421,0.249
			c-0.933,0-1.368-0.156-1.368-0.933v-7.838h4.137v-2.301h-4.137v-3.889l-2.861,0.777v13.094c0,2.302,0.777,3.483,2.986,3.483
			C286.703,125.541,289.938,125.136,290.311,125.074z"/>
		<path fill-rule="evenodd" clip-rule="evenodd" fill="#004277" d="M303.573,125.417c0,0-0.311-0.686-0.311-1.929v-6.531
			c0-3.918-1.742-5.193-4.386-5.193c-1.306,0-2.644,0.373-3.576,1.058v-7.185h-2.861v19.78h2.861v-9.983
			c0.653-0.871,1.928-1.368,2.985-1.368c1.71,0,2.114,1.15,2.114,2.923v6.5c0,1.243,0.312,1.929,0.312,1.929H303.573z"/>
		<polygon fill-rule="evenodd" clip-rule="evenodd" fill="#004277" points="86.544,82.846 86.544,80.513 76.188,80.513 
			76.188,99.235 79.298,99.235 79.298,90.558 85.238,90.558 85.238,88.195 79.298,88.195 79.298,82.846 		"/>
		<path fill-rule="evenodd" clip-rule="evenodd" fill="#004277" d="M92.117,83.094v-3.639h-2.986v3.639H92.117z M92.366,99.235
			c0,0-0.312-0.684-0.312-1.931V85.868h-2.861v11.437c0,1.247,0.312,1.931,0.312,1.931H92.366z"/>
		<path fill-rule="evenodd" clip-rule="evenodd" fill="#004277" d="M107.44,99.235c0,0-0.311-0.964-0.311-2.207v-6.252
			c0-3.918-1.741-5.193-4.51-5.193c-1.741,0-3.141,0.56-4.198,1.555c-0.28-1.025-0.964-1.306-2.177-1.306
			c-0.685,0-1.586,0.124-1.586,0.124v2.178c0,0,0.311-0.094,0.776-0.094c0.529,0,0.871,0.124,0.871,0.933v10.263h2.861v-9.982
			c0.653-0.871,1.897-1.369,2.955-1.369c1.71,0,2.146,1.151,2.146,2.924v6.221c0,1.243,0.312,2.207,0.312,2.207H107.44z"/>
		<path fill-rule="evenodd" clip-rule="evenodd" fill="#004277" d="M122.1,99.235c0,0-0.311-0.964-0.311-2.207v-6.252
			c0-3.918-1.741-5.193-4.51-5.193c-1.741,0-3.141,0.56-4.198,1.555c-0.28-1.025-0.964-1.306-2.177-1.306
			c-0.685,0-1.586,0.124-1.586,0.124v2.178c0,0,0.311-0.094,0.777-0.094c0.528,0,0.87,0.124,0.87,0.933v10.263h2.862v-9.982
			c0.652-0.871,1.896-1.369,2.954-1.369c1.71,0,2.146,1.151,2.146,2.924v6.221c0,1.243,0.312,2.207,0.312,2.207H122.1z"/>
		<path fill-rule="evenodd" clip-rule="evenodd" fill="#004277" d="M128.549,83.094v-3.639h-2.985v3.639H128.549z M128.798,99.235
			c0,0-0.312-0.684-0.312-1.931V85.868h-2.861v11.437c0,1.247,0.312,1.931,0.312,1.931H128.798z"/>
		<path fill-rule="evenodd" clip-rule="evenodd" fill="#004277" d="M141.354,95.534v-0.311c0-2.208-1.462-3.234-3.079-3.856
			c-1.399-0.56-3.669-0.839-3.669-2.177v-0.187c0-1.026,0.777-1.306,2.052-1.306c1.058,0,2.457,0.373,3.577,0.777l0.435-2.084
			c-1.368-0.498-2.581-0.809-4.043-0.809c-2.675,0-4.665,0.934-4.665,3.67v0.187c0,2.644,2.146,3.234,4.23,3.888
			c1.368,0.404,2.519,0.933,2.519,2.239v0.155c0,1.399-1.088,1.648-2.457,1.648c-1.306,0-2.923-0.467-4.104-1.089l-0.436,2.052
			c1.213,0.717,3.047,1.214,4.54,1.214C139.114,99.546,141.354,98.738,141.354,95.534z"/>
		<path fill-rule="evenodd" clip-rule="evenodd" fill="#004277" d="M155.562,99.235c0,0-0.311-0.684-0.311-1.928v-6.531
			c0-3.918-1.742-5.193-4.386-5.193c-1.306,0-2.644,0.373-3.576,1.058v-7.185h-2.861v19.779h2.861v-9.982
			c0.653-0.871,1.928-1.369,2.985-1.369c1.71,0,2.114,1.151,2.114,2.924v6.5c0,1.244,0.312,1.928,0.312,1.928H155.562z"/>
		<polygon fill-rule="evenodd" clip-rule="evenodd" fill="#004277" points="173.428,99.235 173.428,96.996 170.007,96.996 
			170.007,82.752 173.428,82.752 173.428,80.513 163.444,80.513 163.444,82.752 166.896,82.752 166.896,96.996 163.444,96.996 
			163.444,99.235 		"/>
		<path fill-rule="evenodd" clip-rule="evenodd" fill="#004277" d="M187.545,99.235c0,0-0.311-0.964-0.311-2.207v-6.252
			c0-3.918-1.741-5.193-4.51-5.193c-1.741,0-3.141,0.56-4.198,1.555c-0.279-1.025-0.964-1.306-2.177-1.306
			c-0.684,0-1.586,0.124-1.586,0.124v2.178c0,0,0.311-0.094,0.777-0.094c0.529,0,0.871,0.124,0.871,0.933v10.263h2.861v-9.982
			c0.652-0.871,1.896-1.369,2.954-1.369c1.71,0,2.146,1.151,2.146,2.924v6.221c0,1.243,0.312,2.207,0.312,2.207H187.545z"/>
		<path fill-rule="evenodd" clip-rule="evenodd" fill="#004277" d="M199.686,95.534v-0.311c0-2.208-1.461-3.234-3.079-3.856
			c-1.399-0.56-3.669-0.839-3.669-2.177v-0.187c0-1.026,0.777-1.306,2.052-1.306c1.058,0,2.457,0.373,3.577,0.777l0.436-2.084
			c-1.369-0.498-2.582-0.809-4.044-0.809c-2.675,0-4.665,0.934-4.665,3.67v0.187c0,2.644,2.146,3.234,4.23,3.888
			c1.368,0.404,2.519,0.933,2.519,2.239v0.155c0,1.399-1.088,1.648-2.457,1.648c-1.306,0-2.923-0.467-4.104-1.089l-0.436,2.052
			c1.213,0.717,3.048,1.214,4.54,1.214C197.446,99.546,199.686,98.738,199.686,95.534z"/>
		<path fill-rule="evenodd" clip-rule="evenodd" fill="#004277" d="M210.721,98.893l-0.342-2.177c0,0-2.829,0.249-3.421,0.249
			c-0.933,0-1.368-0.156-1.368-0.934v-7.837h4.137v-2.302h-4.137v-3.887l-2.861,0.777v13.093c0,2.302,0.777,3.483,2.986,3.483
			C207.113,99.36,210.349,98.956,210.721,98.893z"/>
		<path fill-rule="evenodd" clip-rule="evenodd" fill="#004277" d="M216.084,83.094v-3.639h-2.985v3.639H216.084z M216.333,99.235
			c0,0-0.312-0.684-0.312-1.931V85.868h-2.861v11.437c0,1.247,0.312,1.931,0.312,1.931H216.333z"/>
		<path fill-rule="evenodd" clip-rule="evenodd" fill="#004277" d="M227.925,98.893l-0.343-2.177c0,0-2.829,0.249-3.421,0.249
			c-0.933,0-1.368-0.156-1.368-0.934v-7.837h4.137v-2.302h-4.137v-3.887l-2.861,0.777v13.093c0,2.302,0.777,3.483,2.986,3.483
			C224.316,99.36,227.552,98.956,227.925,98.893z"/>
		<path fill-rule="evenodd" clip-rule="evenodd" fill="#004277" d="M242.462,99.173v-2.178c0,0-0.343,0.094-0.809,0.094
			c-0.528,0-0.84-0.124-0.84-0.933V85.893h-2.861v9.983c-0.653,0.87-1.896,1.368-2.954,1.368c-1.711,0-2.146-1.15-2.146-2.924
			v-6.219c0-1.244-0.311-2.209-0.311-2.209h-2.861c0,0,0.311,0.965,0.311,2.209v6.25c0,3.919,1.711,5.194,4.479,5.194
			c1.742,0,3.173-0.56,4.229-1.555c0.28,1.026,0.965,1.306,2.178,1.306C241.56,99.297,242.462,99.173,242.462,99.173z"/>
		<path fill-rule="evenodd" clip-rule="evenodd" fill="#004277" d="M252.674,98.893l-0.343-2.177c0,0-2.829,0.249-3.421,0.249
			c-0.933,0-1.368-0.156-1.368-0.934v-7.837h4.136v-2.302h-4.136v-3.887l-2.86,0.777v13.093c0,2.302,0.777,3.483,2.984,3.483
			C249.066,99.36,252.301,98.956,252.674,98.893z"/>
		<path fill-rule="evenodd" clip-rule="evenodd" fill="#004277" d="M265.127,89.657c0-2.861-2.363-4.074-5.162-4.074
			c-2.955,0-5.474,1.119-5.474,5.566v2.799c0,4.479,2.487,5.599,5.442,5.599c1.399,0,3.358-0.249,4.976-0.622l-0.187-2.053
			c-1.058,0.218-3.079,0.373-4.789,0.373c-2.115,0-2.582-1.244-2.582-3.109V94.01l2.955-0.248
			C263.168,93.512,265.127,92.642,265.127,89.657z M262.328,89.719c0,1.182-0.436,1.928-2.426,2.114l-2.551,0.218v-0.902
			c0-2.083,0.561-3.296,2.645-3.296C261.737,87.853,262.328,88.568,262.328,89.719z"/>
		<path fill-rule="evenodd" clip-rule="evenodd" fill="#004277" d="M284.389,93.948v-2.799c0-4.447-2.457-5.566-5.411-5.566
			s-5.38,1.119-5.38,5.566v2.799c0,4.448,2.426,5.599,5.38,5.599S284.389,98.396,284.389,93.948z M281.527,93.917
			c0,1.991-0.435,3.328-2.55,3.328c-2.114,0-2.519-1.337-2.519-3.328v-2.768c0-1.99,0.404-3.296,2.519-3.296
			c2.115,0,2.55,1.306,2.55,3.296V93.917z"/>
		<path fill-rule="evenodd" clip-rule="evenodd" fill="#004277" d="M295.314,79.766c-1.183-0.373-2.178-0.59-3.266-0.59
			c-2.551,0-4.168,0.994-4.168,3.794c0,0.404,0.125,2.923,0.125,2.923h-1.586v2.302h1.803v11.04h2.893v-11.04h3.607v-2.302h-3.731
			c0,0-0.155-2.363-0.155-2.861c0-1.182,0.466-1.555,1.462-1.555c0.933,0,1.99,0.187,2.612,0.342L295.314,79.766z"/>
	</g>
</g>
<g>
	<g id="EN">
		<path fill="#004694" d="M95.77,38.837h-6.048v9.054h6.872v2.398h-9.627V26.168h9.197v2.397h-6.442v7.945h6.048V38.837z"/>
		<path fill="#004694" d="M109.197,45.565c0,1.933,0.107,3.436,0.144,4.724h-2.398l-0.179-1.825h-0.072
			c-0.537,0.859-1.86,2.112-3.722,2.112c-3.042,0-4.223-2.362-4.223-6.657V32.968h2.755v10.558c0,2.719,0.43,4.724,2.327,4.724
			c1.61,0,2.326-1.503,2.469-2.291c0.107-0.465,0.143-1.002,0.143-1.574V32.968h2.756V45.565z"/>
		<path fill="#004694" d="M112.729,37.441c0-1.467-0.107-3.185-0.143-4.473h2.47l0.143,2.72h0.071
			c0.573-1.646,2.041-3.006,3.651-3.006c0.215,0,0.394,0.036,0.572,0.036v2.827c-0.178-0.036-0.357-0.036-0.572-0.036
			c-1.754,0-3.042,1.61-3.329,3.615c-0.072,0.465-0.107,1.001-0.107,1.575v9.591h-2.756V37.441z"/>
		<path fill="#004694" d="M132.053,41.628c0,6.692-3.113,8.947-5.762,8.947c-3.113,0-5.618-2.827-5.618-8.911
			c0-6.335,2.827-8.983,5.797-8.983C129.548,32.682,132.053,35.58,132.053,41.628z M123.429,41.628c0,2.863,0.5,6.764,3.006,6.764
			c2.361,0,2.827-4.08,2.827-6.764c0-2.648-0.465-6.728-2.898-6.728C123.894,34.9,123.429,38.98,123.429,41.628z"/>
		<path fill="#004694" d="M134.834,38.372c0-2.648-0.107-4.187-0.144-5.404h2.47l0.143,2.219h0.072
			c0.931-1.862,2.291-2.505,3.651-2.505c3.006,0,5.01,3.22,5.01,8.911c0,6.406-2.648,8.983-5.368,8.983
			c-1.611,0-2.541-1.038-3.006-2.004h-0.072v8.589h-2.755V38.372z M137.59,43.918c0,0.537,0,1.038,0.107,1.432
			c0.537,2.47,1.79,2.934,2.541,2.934c2.291,0,3.006-3.148,3.006-6.656c0-3.579-0.859-6.585-3.042-6.585
			c-1.252,0-2.361,1.575-2.541,3.15c-0.072,0.429-0.072,0.859-0.072,1.324V43.918z"/>
		<path fill="#004694" d="M150.924,41.878c0.036,5.297,2.111,6.442,4.116,6.442c1.181,0,2.183-0.286,2.863-0.68l0.429,2.04
			c-0.966,0.536-2.433,0.822-3.793,0.822c-4.151,0-6.299-3.4-6.299-8.696c0-5.619,2.362-9.125,5.833-9.125
			c3.543,0,4.939,3.722,4.939,7.658c0,0.645,0,1.11-0.036,1.539H150.924z M156.364,39.839c0.072-3.472-1.253-5.011-2.577-5.011
			c-1.79,0-2.719,2.648-2.827,5.011H156.364z"/>
		<path fill="#004694" d="M170.75,46.353c0,1.324,0,2.828,0.18,3.937h-2.506l-0.18-1.825h-0.107
			c-0.75,1.324-1.967,2.112-3.436,2.112c-2.326,0-4.115-1.968-4.115-4.939c0-4.331,3.472-6.263,7.373-6.299v-0.537
			c0-2.327-0.572-3.937-2.756-3.937c-1.073,0-2.041,0.358-2.864,0.895l-0.608-1.933c0.716-0.537,2.327-1.145,4.044-1.145
			c3.471,0,4.975,2.29,4.975,6.191V46.353z M168.029,41.342c-1.43,0-4.759,0.25-4.759,4.008c0,2.254,1.146,3.078,2.113,3.078
			c1.217,0,2.254-0.895,2.576-2.612c0.07-0.323,0.07-0.68,0.07-0.966V41.342z"/>
		<path fill="#004694" d="M174.207,37.441c0-2.04-0.107-3.078-0.145-4.473h2.398l0.145,2.075h0.072
			c0.75-1.395,2.145-2.361,3.971-2.361c2.398,0,4.188,1.79,4.188,5.977v11.631h-2.756V39.124c0-2.041-0.393-4.116-2.398-4.116
			c-1.145,0-2.254,0.967-2.611,2.827c-0.07,0.43-0.107,0.967-0.107,1.539v10.916h-2.756V37.441z"/>
		<path fill="#004694" d="M197.863,43.06l-1.611,7.229h-2.648l5.512-24.121h3.041l5.369,24.121h-2.721l-1.609-7.229H197.863z
			 M202.836,40.841l-1.252-6.12c-0.357-1.718-0.68-3.722-0.965-5.511h-0.145c-0.285,1.825-0.643,3.9-0.967,5.511l-1.252,6.12
			H202.836z"/>
		<path fill="#004694" d="M220.051,48.07c0,4.545-0.572,6.263-1.717,7.516c-1.039,1.181-2.686,1.861-4.617,1.861
			c-1.467,0-2.9-0.358-3.795-0.859l0.645-2.147c0.68,0.358,1.826,0.752,3.223,0.752c2.184,0,3.543-1.36,3.543-5.297v-1.753h-0.072
			c-0.607,1.359-1.861,2.111-3.328,2.111c-3.078,0-5.082-3.471-5.082-8.554c0-6.37,2.898-9.018,5.439-9.018
			c1.861,0,2.719,1.217,3.221,2.254h0.072l0.143-1.968h2.469c-0.035,1.217-0.143,2.755-0.143,5.404V48.07z M217.332,38.944
			c0-0.43-0.037-0.895-0.145-1.252c-0.322-1.181-0.932-2.649-2.506-2.649c-2.004,0-3.078,2.685-3.078,6.514
			c0,4.438,1.398,6.441,3.078,6.441c0.824,0,1.898-0.394,2.471-2.469c0.143-0.537,0.18-1.074,0.18-1.575V38.944z"/>
		<path fill="#004694" d="M225.533,41.878c0.035,5.297,2.111,6.442,4.115,6.442c1.182,0,2.184-0.286,2.863-0.68l0.43,2.04
			c-0.967,0.536-2.434,0.822-3.795,0.822c-4.15,0-6.297-3.4-6.297-8.696c0-5.619,2.361-9.125,5.834-9.125
			c3.541,0,4.938,3.722,4.938,7.658c0,0.645,0,1.11-0.037,1.539H225.533z M230.973,39.839c0.072-3.472-1.252-5.011-2.576-5.011
			c-1.789,0-2.721,2.648-2.828,5.011H230.973z"/>
		<path fill="#004694" d="M236.244,37.441c0-2.04-0.107-3.078-0.145-4.473h2.398l0.143,2.075h0.072
			c0.752-1.395,2.148-2.361,3.973-2.361c2.398,0,4.188,1.79,4.188,5.977v11.631h-2.756V39.124c0-2.041-0.393-4.116-2.398-4.116
			c-1.145,0-2.254,0.967-2.611,2.827c-0.072,0.43-0.107,0.967-0.107,1.539v10.916h-2.756V37.441z"/>
		<path fill="#004694" d="M258.805,49.86c-0.609,0.357-1.646,0.644-2.863,0.644c-3.795,0-6.334-3.042-6.334-8.768
			c0-4.974,2.504-9.018,6.834-9.018c0.932,0,1.934,0.25,2.434,0.537l-0.535,2.254c-0.359-0.179-1.074-0.466-1.969-0.466
			c-2.756,0-4.008,3.292-4.008,6.692c0,4.044,1.539,6.478,4.078,6.478c0.754,0,1.361-0.179,2.006-0.465L258.805,49.86z"/>
		<path fill="#004694" d="M263.244,32.968l2.291,9.949c0.322,1.36,0.502,2.505,0.717,3.579h0.07c0.18-0.966,0.465-2.291,0.752-3.543
			l2.041-9.984h2.719l-2.828,11.13c-1.072,4.366-2.252,8.554-4.293,11.166c-1.217,1.539-2.506,2.362-3.113,2.648l-1.002-2.362
			c0.787-0.43,1.645-1.181,2.432-2.183c0.717-0.895,1.289-2.076,1.576-2.899c0.143-0.43,0.18-0.608,0.18-0.859
			c0-0.215,0-0.429-0.072-0.645l-4.367-15.997H263.244z"/>
		<path fill="#004694" d="M87.324,86.361v-15.21h-2.183V69.04h2.183v-1.038c0-1.861,0.286-3.793,1.539-5.225
			c1.002-1.109,2.397-1.467,3.471-1.467c0.93,0,1.646,0.18,2.147,0.429l-0.465,2.148c-0.323-0.144-0.788-0.286-1.504-0.286
			c-1.967,0-2.433,2.111-2.433,4.366v1.073h3.149v2.111h-3.149v15.21H87.324z"/>
		<path fill="#004694" d="M105.482,77.7c0,6.693-3.114,8.947-5.762,8.947c-3.113,0-5.619-2.827-5.619-8.911
			c0-6.334,2.827-8.983,5.798-8.983C102.978,68.753,105.482,71.652,105.482,77.7z M96.857,77.7c0,2.864,0.501,6.766,3.006,6.766
			c2.362,0,2.827-4.081,2.827-6.766c0-2.648-0.465-6.728-2.899-6.728C97.323,70.972,96.857,75.052,96.857,77.7z"/>
		<path fill="#004694" d="M108.263,73.513c0-1.467-0.107-3.185-0.144-4.473h2.47l0.142,2.72h0.072
			c0.572-1.646,2.04-3.006,3.65-3.006c0.214,0,0.394,0.036,0.572,0.036v2.828c-0.178-0.036-0.358-0.036-0.572-0.036
			c-1.753,0-3.042,1.611-3.329,3.615c-0.071,0.466-0.107,1.002-0.107,1.575v9.591h-2.755V73.513z"/>
		<path fill="#004694" d="M122.899,83.175c0.823,0.538,2.254,0.967,3.471,0.967c2.505,0,4.008-1.646,4.008-4.079
			c0-2.22-1.288-3.579-3.185-5.011c-1.896-1.323-4.545-3.579-4.545-6.692c0-3.65,2.541-6.334,6.371-6.334
			c1.503,0,2.828,0.465,3.399,0.895l-0.68,2.362c-0.608-0.429-1.61-0.823-2.863-0.823c-2.361,0-3.471,1.789-3.471,3.436
			c0,2.398,1.253,3.329,3.543,4.974c2.899,2.041,4.188,4.26,4.188,6.945c0,4.15-2.935,6.763-6.764,6.763
			c-1.646,0-3.399-0.537-4.079-1.038L122.899,83.175z"/>
		<path fill="#004694" d="M145.313,82.423c0,1.325,0,2.829,0.18,3.938h-2.505l-0.179-1.826h-0.107
			c-0.751,1.324-1.969,2.112-3.436,2.112c-2.326,0-4.115-1.969-4.115-4.938c0-4.331,3.472-6.264,7.372-6.3v-0.537
			c0-2.326-0.572-3.936-2.756-3.936c-1.073,0-2.039,0.357-2.863,0.894l-0.608-1.932c0.716-0.537,2.327-1.146,4.043-1.146
			c3.472,0,4.975,2.291,4.975,6.191V82.423z M142.593,77.415c-1.432,0-4.76,0.25-4.76,4.008c0,2.254,1.145,3.077,2.112,3.077
			c1.217,0,2.254-0.895,2.577-2.612c0.072-0.322,0.072-0.681,0.072-0.966V77.415z"/>
		<path fill="#004694" d="M149.396,86.361v-15.21h-2.183V69.04h2.183v-1.038c0-1.861,0.287-3.793,1.539-5.225
			c1.001-1.109,2.397-1.467,3.472-1.467c0.93,0,1.646,0.18,2.147,0.429l-0.466,2.148c-0.321-0.144-0.787-0.286-1.503-0.286
			c-1.968,0-2.433,2.111-2.433,4.366v1.073h3.149v2.111h-3.149v15.21H149.396z"/>
		<path fill="#004694" d="M158.819,77.952c0.036,5.296,2.111,6.441,4.115,6.441c1.181,0,2.183-0.287,2.863-0.68l0.432,2.039
			c-0.967,0.536-2.435,0.823-3.795,0.823c-4.151,0-6.298-3.4-6.298-8.696c0-5.62,2.362-9.126,5.834-9.126
			c3.542,0,4.939,3.723,4.939,7.659c0,0.645,0,1.11-0.037,1.54H158.819z M164.259,75.911c0.071-3.471-1.253-5.01-2.576-5.01
			c-1.79,0-2.722,2.648-2.828,5.01H164.259z"/>
		<path fill="#004694" d="M173.123,64.995v4.044h3.328v2.111h-3.328v10.271c0,2.254,0.824,2.862,1.826,2.862
			c0.428,0,0.787-0.035,1.109-0.107l0.107,2.111c-0.502,0.18-1.146,0.287-2.041,0.287c-1.074,0-2.039-0.287-2.719-1.038
			c-0.68-0.787-1.039-1.968-1.039-4.365V71.151h-2.111V69.04h2.111v-2.935L173.123,64.995z"/>
		<path fill="#004694" d="M180.906,69.04l2.291,9.95c0.32,1.359,0.5,2.504,0.715,3.577h0.072c0.18-0.966,0.465-2.291,0.752-3.543
			l2.039-9.984h2.721l-2.828,11.13c-1.072,4.365-2.254,8.554-4.293,11.166c-1.219,1.539-2.506,2.361-3.115,2.648l-1.002-2.362
			c0.789-0.43,1.646-1.181,2.434-2.184c0.717-0.895,1.289-2.075,1.574-2.899c0.145-0.429,0.182-0.606,0.182-0.857
			c0-0.214,0-0.429-0.072-0.646l-4.367-15.996H180.906z"/>
		<path fill="#004694" d="M207.068,82.423c0,1.325,0,2.829,0.178,3.938h-2.504l-0.18-1.826h-0.107
			c-0.752,1.324-1.969,2.112-3.436,2.112c-2.326,0-4.115-1.969-4.115-4.938c0-4.331,3.471-6.264,7.371-6.3v-0.537
			c0-2.326-0.572-3.936-2.756-3.936c-1.074,0-2.039,0.357-2.861,0.894l-0.609-1.932c0.715-0.537,2.326-1.146,4.043-1.146
			c3.473,0,4.977,2.291,4.977,6.191V82.423z M204.348,77.415c-1.432,0-4.76,0.25-4.76,4.008c0,2.254,1.145,3.077,2.111,3.077
			c1.217,0,2.254-0.895,2.576-2.612c0.072-0.322,0.072-0.681,0.072-0.966V77.415z"/>
		<path fill="#004694" d="M210.525,73.513c0-2.04-0.107-3.078-0.145-4.473h2.398l0.143,2.076h0.072
			c0.752-1.396,2.146-2.362,3.971-2.362c2.398,0,4.188,1.79,4.188,5.977v11.631h-2.756V75.195c0-2.04-0.393-4.115-2.396-4.115
			c-1.145,0-2.254,0.966-2.613,2.827c-0.072,0.43-0.107,0.966-0.107,1.539v10.916h-2.754V73.513z"/>
		<path fill="#004694" d="M235.164,61.596V82.21c0,1.181,0.107,3.148,0.143,4.15h-2.361l-0.18-2.184h-0.107
			c-0.572,1.253-1.789,2.47-3.615,2.47c-2.934,0-5.045-3.185-5.045-8.876c0-6.155,2.541-9.018,5.225-9.018
			c1.254,0,2.469,0.608,3.15,2.076h0.07v-9.233H235.164z M232.443,75.625c0-0.358,0-0.752-0.035-1.145
			c-0.18-1.79-1.252-3.365-2.576-3.365c-2.291,0-3.078,3.185-3.078,6.656c0,3.651,0.93,6.585,2.934,6.585
			c0.859,0,2.041-0.464,2.648-2.969c0.072-0.323,0.107-0.717,0.107-1.146V75.625z"/>
		<path fill="#004694" d="M248.047,62.239v10.344h6.764V62.239h2.756v24.122h-2.756V75.088h-6.764v11.273h-2.756V62.239H248.047z"/>
		<path fill="#004694" d="M263.256,77.952c0.035,5.296,2.111,6.441,4.117,6.441c1.18,0,2.182-0.287,2.861-0.68l0.43,2.039
			c-0.967,0.536-2.434,0.823-3.793,0.823c-4.15,0-6.299-3.4-6.299-8.696c0-5.62,2.361-9.126,5.832-9.126
			c3.543,0,4.939,3.723,4.939,7.659c0,0.645,0,1.11-0.035,1.54H263.256z M268.695,75.911c0.072-3.471-1.252-5.01-2.576-5.01
			c-1.789,0-2.719,2.648-2.828,5.01H268.695z"/>
		<path fill="#004694" d="M283.084,82.423c0,1.325,0,2.829,0.178,3.938h-2.506l-0.178-1.826h-0.107
			c-0.752,1.324-1.969,2.112-3.436,2.112c-2.326,0-4.117-1.969-4.117-4.938c0-4.331,3.473-6.264,7.373-6.3v-0.537
			c0-2.326-0.572-3.936-2.756-3.936c-1.072,0-2.039,0.357-2.863,0.894l-0.607-1.932c0.715-0.537,2.326-1.146,4.045-1.146
			c3.471,0,4.975,2.291,4.975,6.191V82.423z M280.363,77.415c-1.432,0-4.762,0.25-4.762,4.008c0,2.254,1.146,3.077,2.113,3.077
			c1.217,0,2.254-0.895,2.576-2.612c0.072-0.322,0.072-0.681,0.072-0.966V77.415z"/>
		<path fill="#004694" d="M286.555,61.596h2.756v24.765h-2.756V61.596z"/>
		<path fill="#004694" d="M296.436,64.995v4.044h3.328v2.111h-3.328v10.271c0,2.254,0.822,2.862,1.824,2.862
			c0.43,0,0.787-0.035,1.109-0.107l0.107,2.111c-0.5,0.18-1.146,0.287-2.041,0.287c-1.072,0-2.039-0.287-2.719-1.038
			c-0.68-0.787-1.039-1.968-1.039-4.365V71.151h-2.109V69.04h2.109v-2.935L296.436,64.995z"/>
		<path fill="#004694" d="M301.979,61.596h2.756V70.9h0.072c0.355-0.608,0.893-1.146,1.432-1.503
			c0.643-0.394,1.322-0.645,2.324-0.645c2.184,0,4.045,1.753,4.045,6.12v11.488h-2.756V75.195c0-2.111-0.467-4.115-2.326-4.115
			c-1.287,0-2.256,0.93-2.686,2.755c-0.07,0.394-0.105,0.895-0.105,1.325v11.201h-2.756V61.596z"/>
		<path fill="#004694" d="M95.913,118.496c0,1.324,0,2.828,0.179,3.938h-2.505l-0.179-1.825H93.3
			c-0.752,1.324-1.968,2.11-3.436,2.11c-2.326,0-4.116-1.968-4.116-4.938c0-4.33,3.472-6.264,7.373-6.3v-0.536
			c0-2.327-0.573-3.937-2.756-3.937c-1.074,0-2.04,0.357-2.863,0.895l-0.608-1.933c0.715-0.536,2.326-1.146,4.043-1.146
			c3.472,0,4.975,2.29,4.975,6.191V118.496z M93.193,113.486c-1.432,0-4.76,0.25-4.76,4.008c0,2.255,1.146,3.078,2.112,3.078
			c1.217,0,2.254-0.895,2.577-2.612c0.072-0.323,0.072-0.681,0.072-0.967V113.486z"/>
		<path fill="#004694" d="M102.727,101.068v4.044h3.328v2.111h-3.328v10.271c0,2.255,0.823,2.863,1.825,2.863
			c0.43,0,0.787-0.036,1.109-0.107l0.107,2.112c-0.501,0.178-1.146,0.285-2.04,0.285c-1.073,0-2.04-0.285-2.72-1.037
			c-0.68-0.788-1.038-1.969-1.038-4.367v-10.02h-2.111v-2.111h2.111v-2.936L102.727,101.068z"/>
		<path fill="#004694" d="M117.793,122.433l-4.653-24.122h2.863l2.04,11.632c0.501,3.042,0.895,5.726,1.181,8.696h0.143
			c0.287-3.042,0.859-5.654,1.432-8.732l2.219-11.596h2.362l2.219,11.344c0.537,2.864,1.073,5.621,1.395,8.984h0.108
			c0.393-3.472,0.823-6.12,1.289-8.84l2.004-11.488h2.684l-4.688,24.122h-2.685l-2.326-11.738c-0.466-2.541-0.931-5.261-1.217-7.91
			h-0.071c-0.358,2.721-0.751,5.333-1.324,8.017l-2.398,11.632H117.793z"/>
		<path fill="#004694" d="M147.192,113.772c0,6.691-3.114,8.946-5.763,8.946c-3.113,0-5.618-2.826-5.618-8.91
			c0-6.334,2.827-8.983,5.798-8.983C144.687,104.825,147.192,107.724,147.192,113.772z M138.568,113.772
			c0,2.863,0.5,6.765,3.006,6.765c2.361,0,2.827-4.08,2.827-6.765c0-2.648-0.466-6.728-2.899-6.728
			C139.033,107.044,138.568,111.124,138.568,113.772z"/>
		<path fill="#004694" d="M149.973,109.585c0-1.468-0.107-3.186-0.143-4.474h2.469l0.144,2.719h0.072
			c0.572-1.646,2.04-3.006,3.65-3.006c0.215,0,0.394,0.036,0.572,0.036v2.827c-0.178-0.035-0.356-0.035-0.572-0.035
			c-1.753,0-3.042,1.61-3.329,3.614c-0.072,0.465-0.107,1.002-0.107,1.573v9.593h-2.756V109.585z"/>
		<path fill="#004694" d="M161.564,113.163h0.071c0.323-0.68,0.608-1.359,0.931-1.932l3.436-6.119h2.971l-4.582,7.3l4.974,10.021
			h-3.078l-3.757-8.159l-0.966,1.609v6.55h-2.756V97.668h2.756V113.163z"/>
	</g>
	<path fill="#FFFFFF" d="M68.554,62.272l3.301,12.035c-12.034,12.121-27.148,25.788-44.356,25.788
		c-15.926,0-11.627-13.585-1.031-25.788c0,0-11.823,18.567-0.688,18.567C40.479,92.875,55.735,78.252,68.554,62.272 M68.86,60.792
		l-0.843,1.05C60.598,71.091,53.87,78.019,47.45,83.024c-7.803,6.079-15.094,9.161-21.67,9.161c-1.842,0-3.027-0.524-3.621-1.604
		c-1.989-3.626,2.854-12.711,4.889-15.904c0,0,0.167-0.252,0.721-1.178l-0.401-1.208c-0.609,0.666-1.42,1.565-1.42,1.565
		c-7.831,9.02-11.178,17.315-8.955,22.19c1.434,3.143,4.968,4.738,10.506,4.738c7.901,0,15.914-2.77,24.498-8.466
		c7.599-5.04,14.549-11.688,20.346-17.526l0.28-0.283L68.86,60.792L68.86,60.792z"/>
	<g>
		<path fill="#FFFFFF" d="M56.394,40.631c-4.365,0-9.505,2.436-12.046,6.168c3.844-2.549,6.162-3.555,7.825-3.555
			c0.957,0,1.697,0.333,2.387,0.895c2.512,2.043,0.551,9.622-12.274,21.778l7.082,5.914c5.287-6.059,16.24-18.724,14.18-26.381
			C62.637,42.065,59.744,40.631,56.394,40.631z"/>
		<path fill="#FFFFFF" d="M64.211,45.271c-0.911-3.387-3.761-5.328-7.817-5.328l0,0h0l0,0c-4.758,0-10.063,2.72-12.615,6.469
			c0,0-0.068,0.097-0.179,0.28c-0.048,0.539-0.063,1.05-0.046,1.561c0.817-0.639,1.174-0.881,1.174-0.881
			c3.587-2.379,5.883-3.44,7.444-3.44c0.723,0,1.325,0.229,1.953,0.74c0.429,0.349,0.662,0.924,0.69,1.708
			c0.058,1.521-0.71,7.387-13.004,19.037l-0.562,0.533l8.255,6.844l0.428-0.508c4.228-4.847,7.683-8.797,10.019-12.564
			C63.722,53.643,65.155,48.78,64.211,45.271z M49.367,71.831l-7.082-5.914C55.11,53.761,57.071,46.183,54.559,44.139
			c-0.69-0.562-1.431-0.895-2.387-0.895c-1.663,0-3.98,1.006-7.825,3.555c2.541-3.733,7.682-6.168,12.046-6.168
			c3.35,0,6.243,1.435,7.153,4.819C65.607,53.107,54.653,65.772,49.367,71.831z"/>
	</g>
	<path fill="#5B5B5F" d="M45.276,61.977c-3.192-9.193-4.58-19.563,4.228-34.776h-1.617c-8.8,15.772-6.939,26.279-3.593,35.785
		C44.632,62.645,44.958,62.308,45.276,61.977z"/>
	<path fill="#5B5B5F" d="M50.47,80.542c0.4-0.346,0.803-0.697,1.208-1.057c-0.442-1.456-0.888-2.839-1.313-4.147
		c-0.276-0.851-0.549-1.704-0.861-2.544l-2.2-1.823c0.407,1.097,0.81,2.225,1.17,3.335C49.097,76.23,49.795,78.31,50.47,80.542z"/>
	<path fill="#5B5B5F" d="M53.033,91.615c1.269,8.687,0.817,18.971-4.56,30.83H34.905c-0.171,0.4-0.346,0.8-0.529,1.204h15.128
		c5.793-12.775,6.186-23.787,4.801-32.929C53.883,91.023,53.459,91.323,53.033,91.615z"/>
	<path fill="#AEADB3" d="M37.514,89.279c3.202-1.506,6.52-3.593,9.936-6.255c0.998-0.779,2.006-1.608,3.02-2.481
		c-0.675-2.232-1.373-4.313-1.996-6.235c-0.36-1.111-0.762-2.239-1.17-3.335l-5.46-4.526l-0.595-0.495l0.562-0.533
		c0.887-0.841,1.712-1.649,2.483-2.431c-3.418-9.712-5.287-20.468,4.18-36.818h-15.13c-13.212,22.819-4.348,34.742,0,48.139
		C34.717,78.542,36.45,83.537,37.514,89.279z"/>
	<path fill="#AEADB3" d="M51.997,92.319c-4.645,3.082-9.123,5.307-13.506,6.698c0.075,6.966-1.224,14.779-5.147,23.428h15.13
		c5.377-11.859,5.828-22.144,4.56-30.83C52.688,91.85,52.344,92.088,51.997,92.319z"/>
	<path fill="#004694" d="M63.547,45.45c-0.91-3.384-3.803-4.819-7.153-4.819c-4.365,0-9.505,2.436-12.046,6.168
		c3.844-2.549,6.162-3.555,7.825-3.555c0.957,0,1.697,0.333,2.387,0.895c2.512,2.043,0.551,9.622-12.274,21.778l7.082,5.914
		C54.653,65.772,65.607,53.107,63.547,45.45z"/>
	<path fill="#004694" d="M27.499,100.095c17.208,0,32.322-13.667,44.356-25.788l-3.301-12.035
		C55.735,78.252,40.479,92.875,25.78,92.875c-11.136,0,0.688-18.567,0.688-18.567C15.871,86.51,11.573,100.095,27.499,100.095z"/>
</g>
</svg>
