<?xml version="1.0" encoding="utf-8"?>
<!-- Generator: Adobe Illustrator 16.0.0, SVG Export Plug-In . SVG Version: 6.00 Build 0)  -->
<!DOCTYPE svg PUBLIC "-//W3C//DTD SVG 1.1//EN" "http://www.w3.org/Graphics/SVG/1.1/DTD/svg11.dtd">
<svg version="1.1" id="Capa_1" xmlns="http://www.w3.org/2000/svg" xmlns:xlink="http://www.w3.org/1999/xlink" x="0px" y="0px"
	 width="288px" height="148px" viewBox="0 0 288 148" enable-background="new 0 0 288 148" xml:space="preserve">
<path fill="#172B3C" d="M215.071,120.282c-1.394-1.318-16.184-15.695-25.551-39.679c-9.365-23.987-8.232-44.572-8.104-46.48
	c1.367-0.409,12.768-3.661,28.966-3.661c6.104,0,12.218,0.46,18.168,1.368c25.454,3.884,42.72,15.158,44.311,16.226
	c-0.445,1.864-5.499,21.857-21.585,41.961C235.195,110.12,216.789,119.439,215.071,120.282 M208.833,48.364
	c-0.634,8.49-0.301,17.029,0.989,25.378c0.806,5.193,2.01,10.422,3.581,15.541l0.073,0.236l0.222-0.108
	c7.688-3.704,14.917-8.263,21.484-13.545c4.097-3.292,8.021-6.949,11.67-10.87l0.168-0.181l-0.205-0.139
	c-7.031-4.791-14.592-8.772-22.473-11.834c-4.902-1.902-10.033-3.472-15.251-4.669l-0.241-0.056L208.833,48.364z"/>
<path fill="#172B3C" d="M189.323,80.682c9.921,25.401,25.708,39.854,25.708,39.854s-4.03-5.533-8.352-15.188
	c-1.484-3.337-3.009-7.166-4.416-11.436c-1.646-4.994-3.121-10.596-4.182-16.688c-2.104-12.069-2.003-22.833-1.276-30.956
	c7.49,0.866,17.105,2.755,27.46,6.771c9.05,3.516,16.595,7.834,22.433,11.813c3.123-3.364,5.762-6.612,7.943-9.547
	c-6.671-4.693-15.941-10.159-27.446-14.373c-10.77-3.947-20.753-5.794-28.652-6.609c-10.52-1.095-17.327-0.362-17.327-0.362
	S179.406,55.283,189.323,80.682"/>
<path fill="#314B66" d="M251.441,90.148c17.037-21.292,21.66-42.186,21.66-42.186c-0.003-0.002-2.776,6.259-8.979,14.817
	c-2.146,2.963-4.702,6.196-7.691,9.547c-3.509,3.924-7.617,7.999-12.363,11.966c-9.397,7.852-18.773,13.152-26.17,16.581
	c-2.991-6.916-6.162-16.187-7.863-27.166c-1.484-9.597-1.516-18.291-0.987-25.332c-4.477-1.027-8.603-1.688-12.238-2.109
	c-0.727,8.124-0.826,18.886,1.276,30.956c1.964,11.297,5.361,20.879,8.598,28.123l0.004-0.004
	c4.316,9.658,8.348,15.192,8.348,15.192S234.41,111.439,251.441,90.148"/>
<path fill="#C8CD25" d="M217.896,100.874L217.896,100.874c7.396-3.429,16.771-8.729,26.17-16.58
	c8.806-7.353,15.398-15.083,20.056-21.513c6.205-8.562,8.979-14.818,8.979-14.818s-17.563-12.23-44.518-16.342
	c-26.963-4.114-47.367,2.341-47.367,2.341s6.808-0.733,17.327,0.362c3.635,0.377,7.713,0.971,12.111,1.888
	c5.153,1.073,10.735,2.589,16.548,4.727c11.498,4.208,20.77,9.674,27.439,14.366c-4.495,6.057-10.936,13.437-19.593,20.396
	c-7.564,6.085-15.082,10.454-21.445,13.52C214.951,93.613,216.446,97.525,217.896,100.874"/>
<path fill="#172B3C" d="M31.469,79.659L20.803,34.725h10.862l3.405,18.474c1.003,5.394,1.937,11.197,2.666,15.795h0.13
	c0.737-4.93,1.802-10.333,2.937-15.934l3.804-18.334h10.797l3.601,18.936c1,5.266,1.731,10.068,2.402,15.069h0.131
	c0.668-5.001,1.663-10.27,2.601-15.671l3.667-18.334h10.333L66.536,79.66H55.534l-3.798-19.332
	c-0.87-4.531-1.601-8.731-2.131-13.868h-0.138c-0.798,5.07-1.528,9.337-2.598,13.868L42.602,79.66L31.469,79.659L31.469,79.659z"/>
<path fill="#172B3C" d="M83.877,69.262c2.669,1.401,6.938,2.798,11.272,2.798c4.664,0,7.134-1.932,7.134-4.933
	c0-2.731-2.138-4.404-7.538-6.267c-7.463-2.667-12.4-6.801-12.4-13.396c0-7.673,6.467-13.471,17.001-13.471
	c5.132,0,8.801,1.004,11.47,2.265l-2.27,8.139c-1.74-0.873-5-2.134-9.331-2.134c-4.402,0-6.538,2.065-6.538,4.329
	c0,2.869,2.472,4.137,8.337,6.402c7.931,2.935,11.6,7.069,11.6,13.471c0,7.531-5.736,13.932-18.068,13.932
	c-5.136,0-10.198-1.403-12.735-2.797L83.877,69.262z"/>
<polygon fill="#172B3C" points="130.412,34.725 130.412,52.061 147.145,52.061 147.145,34.725 157.278,34.725 157.278,79.659 
	147.145,79.659 147.145,60.93 130.412,60.93 130.412,79.659 120.278,79.659 120.278,34.725 "/>
<polygon fill="#8F9C3D" points="32.544,88.744 26.265,121.811 22.194,121.811 28.474,88.744 "/>
<path fill="#8F9C3D" d="M33.577,121.811l3.135-16.82c0.537-2.657,0.884-4.961,1.131-6.918h3.68l-0.639,4.66h0.098
	c2.158-3.338,5.347-5.203,8.829-5.203c2.797,0,5.984,1.615,5.984,6.576c0,1.074-0.196,2.595-0.441,3.822l-2.649,13.883h-4.021
	l2.6-13.738c0.148-0.879,0.296-2.008,0.296-3.035c0-2.355-0.935-4.12-3.73-4.12c-2.892,0-7.016,3.481-8.093,9.369l-2.159,11.524
	H33.577z"/>
<path fill="#8F9C3D" d="M59.964,117.736c1.081,0.688,3.145,1.479,5.106,1.479c2.744,0,4.512-1.771,4.512-3.876
	c0-1.864-0.831-3.041-3.336-4.418c-2.746-1.519-4.272-3.58-4.272-6.039c0-4.165,3.59-7.354,8.638-7.354
	c2.112,0,4.025,0.592,4.91,1.181l-1.129,3.093c-0.841-0.498-2.31-1.084-4.075-1.084c-2.502,0-4.268,1.57-4.268,3.583
	c0,1.718,1.128,2.794,3.283,3.974c2.654,1.521,4.418,3.584,4.418,6.281c0,5-4.022,7.793-9.078,7.793
	c-2.545-0.043-4.803-0.777-5.884-1.617L59.964,117.736z"/>
<path fill="#8F9C3D" d="M88.518,92.378L87.44,98.07h5.685l-0.632,3.188h-5.694l-2.154,11.572c-0.293,1.328-0.493,2.554-0.493,3.782
	c0,1.42,0.686,2.301,2.256,2.301c0.74,0,1.372-0.05,1.917-0.191l-0.198,3.188c-0.737,0.297-1.963,0.438-3.145,0.438
	c-3.577,0-4.999-2.158-4.999-4.611c0-1.371,0.195-2.748,0.537-4.461l2.307-12.017h-3.385l0.591-3.188h3.384l0.832-4.366
	L88.518,92.378z"/>
<path fill="#8F9C3D" d="M93.371,121.811l4.515-23.738h4.076l-4.518,23.738H93.371z M100.978,93.705c-1.423,0-2.402-1.131-2.402-2.65
	c0.048-1.621,1.271-2.893,2.796-2.893c1.523,0,2.548,1.122,2.548,2.643c-0.044,1.723-1.271,2.9-2.895,2.9H100.978z"/>
<path fill="#8F9C3D" d="M115.107,92.378l-1.081,5.692h5.693l-0.642,3.188h-5.688l-2.157,11.572
	c-0.294,1.328-0.487,2.554-0.487,3.782c0,1.42,0.682,2.301,2.253,2.301c0.73,0,1.372-0.05,1.912-0.191l-0.193,3.188
	c-0.735,0.297-1.968,0.438-3.144,0.438c-3.58,0-5.005-2.158-5.005-4.611c0-1.371,0.195-2.748,0.541-4.461l2.31-12.017h-3.388
	l0.59-3.188h3.382l0.834-4.366L115.107,92.378z"/>
<path fill="#8F9C3D" d="M143.166,98.07l-3.239,16.822c-0.488,2.647-0.834,4.955-1.025,6.918h-3.682l0.642-4.463h-0.099
	c-2.161,3.09-5.255,5-8.396,5c-3.04,0-6.279-1.47-6.279-6.861c0-1.133,0.151-2.455,0.445-4.025l2.597-13.391h4.026l-2.502,13.242
	c-0.247,1.33-0.393,2.451-0.393,3.484c0,2.452,0.979,4.117,3.777,4.117c2.992,0,6.768-3.482,7.754-8.684l2.3-12.16H143.166
	L143.166,98.07z"/>
<path fill="#8F9C3D" d="M156.264,92.378l-1.079,5.692h5.688l-0.632,3.188h-5.691l-2.158,11.572
	c-0.295,1.328-0.488,2.554-0.488,3.782c0,1.42,0.683,2.301,2.253,2.301c0.735,0,1.374-0.05,1.912-0.191l-0.193,3.188
	c-0.739,0.297-1.963,0.438-3.141,0.438c-3.581,0-5.007-2.158-5.007-4.611c0-1.371,0.196-2.748,0.544-4.461l2.3-12.017h-3.384
	l0.593-3.188h3.382l0.836-4.366L156.264,92.378z"/>
<path fill="#8F9C3D" d="M178.047,120.492c-1.761,0.977-4.658,1.855-7.844,1.855c-6.284,0-9.034-4.313-9.034-9.563
	c0-7.166,5.307-15.257,12.956-15.257c4.517,0,6.961,2.699,6.961,6.131c0,6.229-7.012,7.85-15.79,7.701
	c-0.195,1.033-0.048,3.238,0.49,4.516c0.932,2.158,2.843,3.188,5.296,3.188c2.802,0,4.904-0.834,6.376-1.619L178.047,120.492z
	 M177.171,103.707c0-1.906-1.479-2.99-3.634-2.99c-3.878,0-6.774,3.779-7.751,7.506c6.376,0.098,11.385-0.781,11.385-4.463V103.707
	L177.171,103.707z"/>
</svg>
