<?xml version="1.0" encoding="utf-8"?>
<!-- Generator: Adobe Illustrator 16.0.0, SVG Export Plug-In . SVG Version: 6.00 Build 0)  -->
<!DOCTYPE svg PUBLIC "-//W3C//DTD SVG 1.1//EN" "http://www.w3.org/Graphics/SVG/1.1/DTD/svg11.dtd">
<svg version="1.1" id="Blogger_alt" xmlns="http://www.w3.org/2000/svg" xmlns:xlink="http://www.w3.org/1999/xlink" x="0px"
	 y="0px" width="512px" height="512px" viewBox="0 0 512 512" enable-background="new 0 0 512 512" xml:space="preserve">
<path fill="#1F9A9B" d="M463.992,220.443l-3.531-7.3l-5.894-4.618c-7.711-6.04-46.729,0.396-57.224-9.146
	c-7.462-6.861-8.619-19.217-10.862-35.898c-4.192-32.452-6.844-34.123-11.9-45.072C356.198,79.404,306.363,50.075,272.122,46
	h-92.738c-72.967,0-132.609,59.76-132.609,132.726v154.813C46.775,406.357,106.417,466,179.384,466h152.381
	c72.966,0,132.228-59.643,132.638-132.461l0.821-107.234L463.992,220.443z M181.069,154.467h73.538
	c14.029,0,25.403,11.389,25.403,25.285c0,13.866-11.374,25.401-25.403,25.401h-73.538c-14.025,0-25.4-11.535-25.4-25.401
	C155.667,165.856,167.043,154.467,181.069,154.467z M330.49,356.846H181.069c-14.025,0-25.4-11.551-25.4-25.269
	c0-13.911,11.375-25.257,25.4-25.257H330.49c13.953,0,25.271,11.346,25.271,25.257C355.76,345.295,344.443,356.846,330.49,356.846z"
	/>
</svg>
