<?xml version="1.0" encoding="utf-8"?>
<!-- Generator: Adobe Illustrator 16.0.0, SVG Export Plug-In . SVG Version: 6.00 Build 0)  -->
<!DOCTYPE svg PUBLIC "-//W3C//DTD SVG 1.1//EN" "http://www.w3.org/Graphics/SVG/1.1/DTD/svg11.dtd">
<svg version="1.1" id="Capa_1" xmlns="http://www.w3.org/2000/svg" xmlns:xlink="http://www.w3.org/1999/xlink" x="0px" y="0px"
	 width="325.676px" height="147.864px" viewBox="0 0 325.676 147.864" enable-background="new 0 0 325.676 147.864"
	 xml:space="preserve">
<g>
	<path fill="#CAD226" d="M46.39,24.521c1.832-1.298,4.069-2.061,6.486-2.061c6.202,0,11.229,5.028,11.229,11.23
		c0,6.203-5.027,11.23-11.229,11.23c-6.461,0-11.698,5.237-11.698,11.698c0,6.46,5.237,11.698,11.698,11.698
		c6.46,0,11.698-5.238,11.698-11.698c0-6.203,5.027-11.23,11.229-11.23s11.23,5.028,11.23,11.23c0,6.202-5.028,11.23-11.23,11.23
		h-6.083c-3.101,0-5.615,2.514-5.615,5.615v6.083c0,6.201-5.027,11.229-11.229,11.229s-11.23-5.028-11.23-11.229v-6.083
		c0-3.101-2.514-5.615-5.615-5.615h-6.083c-6.202,0-11.23-5.028-11.23-11.23c0-6.203,5.028-11.23,11.23-11.23h6.083
		c3.102,0,5.615-2.514,5.615-5.615v-7.955c0-3.101-2.514-5.615-5.615-5.615h-3.743c-3.102,0-5.615-2.514-5.615-5.615
		c0-3.102,2.514-5.615,5.615-5.615c2.948,0,5.342,2.272,5.594,5.16c0.192,2.907,2.638,5.2,5.599,5.2
		C44.545,25.333,45.541,25.037,46.39,24.521z"/>
</g>
<g>
	<rect fill="none" width="325.676" height="147.864"/>
	<path fill-rule="evenodd" clip-rule="evenodd" fill="#004277" d="M88.597,119.631v-7.185c0-4.789-2.83-6.063-6.282-6.063
		c-3.421,0-6.282,1.274-6.282,6.063v7.185c0,4.789,2.83,6.096,6.282,6.096C85.735,125.727,88.597,124.42,88.597,119.631z
		 M85.486,119.631c0,2.488-0.87,3.545-3.172,3.545c-2.301,0-3.172-1.057-3.172-3.545v-7.185c0-2.487,0.871-3.514,3.172-3.514
		c2.302,0,3.172,1.026,3.172,3.514V119.631z"/>
	<path fill-rule="evenodd" clip-rule="evenodd" fill="#004277" d="M101.129,124.701l-0.373-2.177
		c-1.15,0.436-2.675,0.902-3.794,0.902c-2.021,0-2.675-1.09-2.675-3.297v-2.769c0-2.208,0.653-3.327,2.675-3.327
		c1.119,0,2.644,0.467,3.794,0.901l0.373-2.177c-1.088-0.467-2.644-0.995-4.167-0.995c-2.955,0-5.536,1.088-5.536,5.567v2.799
		c0,4.479,2.581,5.598,5.536,5.598C98.485,125.727,100.041,125.167,101.129,124.701z"/>
	<path fill-rule="evenodd" clip-rule="evenodd" fill="#004277" d="M112.655,124.701l-0.373-2.177
		c-1.15,0.436-2.675,0.902-3.794,0.902c-2.021,0-2.675-1.09-2.675-3.297v-2.769c0-2.208,0.653-3.327,2.675-3.327
		c1.119,0,2.644,0.467,3.794,0.901l0.373-2.177c-1.089-0.467-2.644-0.995-4.167-0.995c-2.955,0-5.536,1.088-5.536,5.567v2.799
		c0,4.479,2.581,5.598,5.536,5.598C110.012,125.727,111.566,125.167,112.655,124.701z"/>
	<path fill-rule="evenodd" clip-rule="evenodd" fill="#004277" d="M127.509,125.354v-2.178c0,0-0.342,0.094-0.809,0.094
		c-0.528,0-0.839-0.124-0.839-0.934v-10.262H123v9.982c-0.653,0.871-1.897,1.369-2.955,1.369c-1.71,0-2.146-1.151-2.146-2.924
		v-6.221c0-1.243-0.312-2.207-0.312-2.207h-2.86c0,0,0.311,0.964,0.311,2.207v6.252c0,3.918,1.71,5.193,4.479,5.193
		c1.741,0,3.172-0.56,4.229-1.555c0.28,1.025,0.964,1.306,2.177,1.306C126.607,125.478,127.509,125.354,127.509,125.354z"/>
	<path fill-rule="evenodd" clip-rule="evenodd" fill="#004277" d="M140.862,120.129v-2.737c0-3.888-1.897-5.629-4.571-5.629
		c-1.648,0-3.049,0.56-4.105,1.586c-0.28-1.089-1.058-1.337-2.178-1.337c-0.684,0-1.586,0.124-1.586,0.124v2.177
		c0,0,0.312-0.093,0.777-0.093c0.529,0,0.871,0.124,0.871,0.933v16.452h2.861v-6.345c0.746,0.249,1.556,0.467,2.426,0.467
		C138.312,125.727,140.862,124.608,140.862,120.129z M138.001,120.129c0,2.207-0.622,3.297-2.644,3.297
		c-0.746,0-1.586-0.25-2.426-0.498v-7.526c0.685-0.871,1.896-1.337,2.924-1.337c1.71,0,2.146,1.43,2.146,3.327V120.129z"/>
	<path fill-rule="evenodd" clip-rule="evenodd" fill="#004277" d="M156.322,125.354v-2.178c0,0-0.311,0.094-0.777,0.094
		c-0.528,0-0.871-0.124-0.871-0.934v-10.045l-1.461-0.186c-1.151-0.125-2.581-0.343-3.826-0.343c-2.954,0-5.535,1.088-5.535,5.567
		v2.736c0,3.888,1.928,5.66,4.603,5.66c1.617,0,3.048-0.56,4.105-1.586c0.28,1.088,1.058,1.337,2.177,1.337
		C155.421,125.478,156.322,125.354,156.322,125.354z M151.813,122.057c-0.684,0.871-1.928,1.337-2.954,1.337
		c-1.71,0-2.146-1.43-2.146-3.327v-2.736c0-2.209,0.622-3.266,2.644-3.266c0.746,0,1.772,0.093,2.456,0.217V122.057z"/>
	<path fill-rule="evenodd" clip-rule="evenodd" fill="#004277" d="M166.547,125.074l-0.342-2.177c0,0-2.83,0.249-3.422,0.249
		c-0.933,0-1.367-0.156-1.367-0.933v-7.838h4.136v-2.301h-4.136v-3.889l-2.861,0.777v13.094c0,2.302,0.777,3.483,2.985,3.483
		C162.939,125.541,166.174,125.136,166.547,125.074z"/>
	<path fill-rule="evenodd" clip-rule="evenodd" fill="#004277" d="M171.909,109.275v-3.639h-2.985v3.639H171.909z M172.158,125.417
		c0,0-0.311-0.686-0.311-1.932v-11.437h-2.861v11.437c0,1.246,0.311,1.932,0.311,1.932H172.158z"/>
	<path fill-rule="evenodd" clip-rule="evenodd" fill="#004277" d="M186.27,120.129v-2.799c0-4.447-2.457-5.567-5.412-5.567
		c-2.954,0-5.38,1.12-5.38,5.567v2.799c0,4.447,2.426,5.598,5.38,5.598C183.813,125.727,186.27,124.577,186.27,120.129z
		 M183.408,120.098c0,1.99-0.436,3.328-2.551,3.328c-2.114,0-2.519-1.338-2.519-3.328v-2.768c0-1.991,0.404-3.297,2.519-3.297
		c2.115,0,2.551,1.306,2.551,3.297V120.098z"/>
	<path fill-rule="evenodd" clip-rule="evenodd" fill="#004277" d="M200.988,125.417c0,0-0.312-0.965-0.312-2.209v-6.251
		c0-3.918-1.741-5.193-4.51-5.193c-1.741,0-3.141,0.56-4.198,1.555c-0.279-1.026-0.964-1.306-2.177-1.306
		c-0.684,0-1.586,0.124-1.586,0.124v2.177c0,0,0.311-0.093,0.777-0.093c0.529,0,0.87,0.124,0.87,0.933v10.264h2.862v-9.983
		c0.652-0.871,1.896-1.368,2.954-1.368c1.711,0,2.146,1.15,2.146,2.923v6.22c0,1.244,0.311,2.209,0.311,2.209H200.988z"/>
	<path fill-rule="evenodd" clip-rule="evenodd" fill="#004277" d="M216.362,125.354v-2.178c0,0-0.312,0.094-0.777,0.094
		c-0.528,0-0.871-0.124-0.871-0.934v-10.045l-1.462-0.186c-1.15-0.125-2.58-0.343-3.825-0.343c-2.954,0-5.535,1.088-5.535,5.567
		v2.736c0,3.888,1.928,5.66,4.603,5.66c1.617,0,3.048-0.56,4.105-1.586c0.28,1.088,1.057,1.337,2.177,1.337
		C215.461,125.478,216.362,125.354,216.362,125.354z M211.854,122.057c-0.685,0.871-1.929,1.337-2.955,1.337
		c-1.71,0-2.146-1.43-2.146-3.327v-2.736c0-2.209,0.622-3.266,2.644-3.266c0.746,0,1.772,0.093,2.457,0.217V122.057z"/>
	<path fill-rule="evenodd" clip-rule="evenodd" fill="#004277" d="M222.047,125.417c0,0-0.312-0.686-0.312-1.929v-17.852h-2.861
		v17.852c0,1.243,0.312,1.929,0.312,1.929H222.047z"/>
	<polygon fill-rule="evenodd" clip-rule="evenodd" fill="#004277" points="244.076,125.417 244.076,106.694 240.936,106.694 
		240.936,114.313 234.342,114.313 234.342,106.694 231.232,106.694 231.232,125.417 234.342,125.417 234.342,116.646 
		240.936,116.646 240.936,125.417 	"/>
	<path fill-rule="evenodd" clip-rule="evenodd" fill="#004277" d="M257.978,115.837c0-2.861-2.364-4.074-5.163-4.074
		c-2.954,0-5.473,1.12-5.473,5.567v2.799c0,4.479,2.487,5.598,5.442,5.598c1.399,0,3.358-0.249,4.976-0.622l-0.187-2.053
		c-1.058,0.218-3.079,0.374-4.789,0.374c-2.115,0-2.582-1.245-2.582-3.111v-0.124l2.955-0.249
		C256.018,119.694,257.978,118.823,257.978,115.837z M255.179,115.899c0,1.182-0.436,1.929-2.426,2.115l-2.551,0.218v-0.901
		c0-2.084,0.561-3.297,2.644-3.297C254.588,114.034,255.179,114.749,255.179,115.899z"/>
	<path fill-rule="evenodd" clip-rule="evenodd" fill="#004277" d="M273.122,125.354v-2.178c0,0-0.312,0.094-0.778,0.094
		c-0.528,0-0.87-0.124-0.87-0.934v-10.045l-1.462-0.186c-1.15-0.125-2.581-0.343-3.825-0.343c-2.954,0-5.536,1.088-5.536,5.567
		v2.736c0,3.888,1.929,5.66,4.604,5.66c1.617,0,3.048-0.56,4.105-1.586c0.279,1.088,1.057,1.337,2.176,1.337
		C272.22,125.478,273.122,125.354,273.122,125.354z M268.612,122.057c-0.685,0.871-1.928,1.337-2.954,1.337
		c-1.711,0-2.146-1.43-2.146-3.327v-2.736c0-2.209,0.623-3.266,2.645-3.266c0.745,0,1.771,0.093,2.456,0.217V122.057z"/>
	<path fill-rule="evenodd" clip-rule="evenodd" fill="#004277" d="M278.806,125.417c0,0-0.311-0.686-0.311-1.929v-17.852h-2.862
		v17.852c0,1.243,0.312,1.929,0.312,1.929H278.806z"/>
	<path fill-rule="evenodd" clip-rule="evenodd" fill="#004277" d="M290.311,125.074l-0.342-2.177c0,0-2.83,0.249-3.421,0.249
		c-0.933,0-1.368-0.156-1.368-0.933v-7.838h4.137v-2.301h-4.137v-3.889l-2.861,0.777v13.094c0,2.302,0.777,3.483,2.986,3.483
		C286.703,125.541,289.938,125.136,290.311,125.074z"/>
	<path fill-rule="evenodd" clip-rule="evenodd" fill="#004277" d="M303.573,125.417c0,0-0.311-0.686-0.311-1.929v-6.531
		c0-3.918-1.742-5.193-4.386-5.193c-1.306,0-2.644,0.373-3.576,1.058v-7.185h-2.861v19.78h2.861v-9.983
		c0.653-0.871,1.928-1.368,2.985-1.368c1.71,0,2.114,1.15,2.114,2.923v6.5c0,1.243,0.312,1.929,0.312,1.929H303.573z"/>
	<polygon fill-rule="evenodd" clip-rule="evenodd" fill="#004277" points="86.544,82.846 86.544,80.513 76.188,80.513 
		76.188,99.235 79.298,99.235 79.298,90.558 85.238,90.558 85.238,88.195 79.298,88.195 79.298,82.846 	"/>
	<path fill-rule="evenodd" clip-rule="evenodd" fill="#004277" d="M92.117,83.094v-3.639h-2.986v3.639H92.117z M92.366,99.235
		c0,0-0.312-0.684-0.312-1.931V85.868h-2.861v11.437c0,1.247,0.312,1.931,0.312,1.931H92.366z"/>
	<path fill-rule="evenodd" clip-rule="evenodd" fill="#004277" d="M107.44,99.235c0,0-0.311-0.964-0.311-2.207v-6.252
		c0-3.918-1.741-5.193-4.51-5.193c-1.741,0-3.141,0.56-4.198,1.555c-0.28-1.025-0.964-1.306-2.177-1.306
		c-0.685,0-1.586,0.124-1.586,0.124v2.178c0,0,0.311-0.094,0.776-0.094c0.529,0,0.871,0.124,0.871,0.933v10.263h2.861v-9.982
		c0.653-0.871,1.897-1.369,2.955-1.369c1.71,0,2.146,1.151,2.146,2.924v6.221c0,1.243,0.312,2.207,0.312,2.207H107.44z"/>
	<path fill-rule="evenodd" clip-rule="evenodd" fill="#004277" d="M122.1,99.235c0,0-0.311-0.964-0.311-2.207v-6.252
		c0-3.918-1.741-5.193-4.51-5.193c-1.741,0-3.141,0.56-4.198,1.555c-0.28-1.025-0.964-1.306-2.177-1.306
		c-0.685,0-1.586,0.124-1.586,0.124v2.178c0,0,0.311-0.094,0.777-0.094c0.528,0,0.87,0.124,0.87,0.933v10.263h2.862v-9.982
		c0.652-0.871,1.896-1.369,2.954-1.369c1.71,0,2.146,1.151,2.146,2.924v6.221c0,1.243,0.312,2.207,0.312,2.207H122.1z"/>
	<path fill-rule="evenodd" clip-rule="evenodd" fill="#004277" d="M128.549,83.094v-3.639h-2.985v3.639H128.549z M128.798,99.235
		c0,0-0.312-0.684-0.312-1.931V85.868h-2.861v11.437c0,1.247,0.312,1.931,0.312,1.931H128.798z"/>
	<path fill-rule="evenodd" clip-rule="evenodd" fill="#004277" d="M141.354,95.534v-0.311c0-2.208-1.462-3.234-3.079-3.856
		c-1.399-0.56-3.669-0.839-3.669-2.177v-0.187c0-1.026,0.777-1.306,2.052-1.306c1.058,0,2.457,0.373,3.577,0.777l0.435-2.084
		c-1.368-0.498-2.581-0.809-4.043-0.809c-2.675,0-4.665,0.934-4.665,3.67v0.187c0,2.644,2.146,3.234,4.23,3.888
		c1.368,0.404,2.519,0.933,2.519,2.239v0.155c0,1.399-1.088,1.648-2.457,1.648c-1.306,0-2.923-0.467-4.104-1.089l-0.436,2.052
		c1.213,0.717,3.047,1.214,4.54,1.214C139.114,99.546,141.354,98.738,141.354,95.534z"/>
	<path fill-rule="evenodd" clip-rule="evenodd" fill="#004277" d="M155.562,99.235c0,0-0.311-0.684-0.311-1.928v-6.531
		c0-3.918-1.742-5.193-4.386-5.193c-1.306,0-2.644,0.373-3.576,1.058v-7.185h-2.861v19.779h2.861v-9.982
		c0.653-0.871,1.928-1.369,2.985-1.369c1.71,0,2.114,1.151,2.114,2.924v6.5c0,1.244,0.312,1.928,0.312,1.928H155.562z"/>
	<polygon fill-rule="evenodd" clip-rule="evenodd" fill="#004277" points="173.428,99.235 173.428,96.996 170.007,96.996 
		170.007,82.752 173.428,82.752 173.428,80.513 163.444,80.513 163.444,82.752 166.896,82.752 166.896,96.996 163.444,96.996 
		163.444,99.235 	"/>
	<path fill-rule="evenodd" clip-rule="evenodd" fill="#004277" d="M187.545,99.235c0,0-0.311-0.964-0.311-2.207v-6.252
		c0-3.918-1.741-5.193-4.51-5.193c-1.741,0-3.141,0.56-4.198,1.555c-0.279-1.025-0.964-1.306-2.177-1.306
		c-0.684,0-1.586,0.124-1.586,0.124v2.178c0,0,0.311-0.094,0.777-0.094c0.529,0,0.871,0.124,0.871,0.933v10.263h2.861v-9.982
		c0.652-0.871,1.896-1.369,2.954-1.369c1.71,0,2.146,1.151,2.146,2.924v6.221c0,1.243,0.312,2.207,0.312,2.207H187.545z"/>
	<path fill-rule="evenodd" clip-rule="evenodd" fill="#004277" d="M199.686,95.534v-0.311c0-2.208-1.461-3.234-3.079-3.856
		c-1.399-0.56-3.669-0.839-3.669-2.177v-0.187c0-1.026,0.777-1.306,2.052-1.306c1.058,0,2.457,0.373,3.577,0.777l0.436-2.084
		c-1.369-0.498-2.582-0.809-4.044-0.809c-2.675,0-4.665,0.934-4.665,3.67v0.187c0,2.644,2.146,3.234,4.23,3.888
		c1.368,0.404,2.519,0.933,2.519,2.239v0.155c0,1.399-1.088,1.648-2.457,1.648c-1.306,0-2.923-0.467-4.104-1.089l-0.436,2.052
		c1.213,0.717,3.048,1.214,4.54,1.214C197.446,99.546,199.686,98.738,199.686,95.534z"/>
	<path fill-rule="evenodd" clip-rule="evenodd" fill="#004277" d="M210.721,98.893l-0.342-2.177c0,0-2.829,0.249-3.421,0.249
		c-0.933,0-1.368-0.156-1.368-0.934v-7.837h4.137v-2.302h-4.137v-3.887l-2.861,0.777v13.093c0,2.302,0.777,3.483,2.986,3.483
		C207.113,99.36,210.349,98.956,210.721,98.893z"/>
	<path fill-rule="evenodd" clip-rule="evenodd" fill="#004277" d="M216.084,83.094v-3.639h-2.985v3.639H216.084z M216.333,99.235
		c0,0-0.312-0.684-0.312-1.931V85.868h-2.861v11.437c0,1.247,0.312,1.931,0.312,1.931H216.333z"/>
	<path fill-rule="evenodd" clip-rule="evenodd" fill="#004277" d="M227.925,98.893l-0.343-2.177c0,0-2.829,0.249-3.421,0.249
		c-0.933,0-1.368-0.156-1.368-0.934v-7.837h4.137v-2.302h-4.137v-3.887l-2.861,0.777v13.093c0,2.302,0.777,3.483,2.986,3.483
		C224.316,99.36,227.552,98.956,227.925,98.893z"/>
	<path fill-rule="evenodd" clip-rule="evenodd" fill="#004277" d="M242.462,99.173v-2.178c0,0-0.343,0.094-0.809,0.094
		c-0.528,0-0.84-0.124-0.84-0.933V85.893h-2.861v9.983c-0.653,0.87-1.896,1.368-2.954,1.368c-1.711,0-2.146-1.15-2.146-2.924v-6.219
		c0-1.244-0.311-2.209-0.311-2.209h-2.861c0,0,0.311,0.965,0.311,2.209v6.25c0,3.919,1.711,5.194,4.479,5.194
		c1.742,0,3.173-0.56,4.229-1.555c0.28,1.026,0.965,1.306,2.178,1.306C241.56,99.297,242.462,99.173,242.462,99.173z"/>
	<path fill-rule="evenodd" clip-rule="evenodd" fill="#004277" d="M252.674,98.893l-0.343-2.177c0,0-2.829,0.249-3.421,0.249
		c-0.933,0-1.368-0.156-1.368-0.934v-7.837h4.136v-2.302h-4.136v-3.887l-2.86,0.777v13.093c0,2.302,0.777,3.483,2.984,3.483
		C249.066,99.36,252.301,98.956,252.674,98.893z"/>
	<path fill-rule="evenodd" clip-rule="evenodd" fill="#004277" d="M265.127,89.657c0-2.861-2.363-4.074-5.162-4.074
		c-2.955,0-5.474,1.119-5.474,5.566v2.799c0,4.479,2.487,5.599,5.442,5.599c1.399,0,3.358-0.249,4.976-0.622l-0.187-2.053
		c-1.058,0.218-3.079,0.373-4.789,0.373c-2.115,0-2.582-1.244-2.582-3.109V94.01l2.955-0.248
		C263.168,93.512,265.127,92.642,265.127,89.657z M262.328,89.719c0,1.182-0.436,1.928-2.426,2.114l-2.551,0.218v-0.902
		c0-2.083,0.561-3.296,2.645-3.296C261.737,87.853,262.328,88.568,262.328,89.719z"/>
	<path fill-rule="evenodd" clip-rule="evenodd" fill="#004277" d="M284.389,93.948v-2.799c0-4.447-2.457-5.566-5.411-5.566
		s-5.38,1.119-5.38,5.566v2.799c0,4.448,2.426,5.599,5.38,5.599S284.389,98.396,284.389,93.948z M281.527,93.917
		c0,1.991-0.435,3.328-2.55,3.328c-2.114,0-2.519-1.337-2.519-3.328v-2.768c0-1.99,0.404-3.296,2.519-3.296
		c2.115,0,2.55,1.306,2.55,3.296V93.917z"/>
	<path fill-rule="evenodd" clip-rule="evenodd" fill="#004277" d="M295.314,79.766c-1.183-0.373-2.178-0.59-3.266-0.59
		c-2.551,0-4.168,0.994-4.168,3.794c0,0.404,0.125,2.923,0.125,2.923h-1.586v2.302h1.803v11.04h2.893v-11.04h3.607v-2.302h-3.731
		c0,0-0.155-2.363-0.155-2.861c0-1.182,0.466-1.555,1.462-1.555c0.933,0,1.99,0.187,2.612,0.342L295.314,79.766z"/>
</g>
</svg>
