<?xml version="1.0" encoding="utf-8"?>
<!-- Generator: Adobe Illustrator 16.0.0, SVG Export Plug-In . SVG Version: 6.00 Build 0)  -->
<!DOCTYPE svg PUBLIC "-//W3C//DTD SVG 1.1//EN" "http://www.w3.org/Graphics/SVG/1.1/DTD/svg11.dtd">
<svg version="1.1" id="Capa_1" xmlns="http://www.w3.org/2000/svg" xmlns:xlink="http://www.w3.org/1999/xlink" x="0px" y="0px"
	 width="207px" height="175px" viewBox="0 0 207 175" enable-background="new 0 0 207 175" xml:space="preserve">
<g>
	<path fill="#00529C" d="M58.033,53.89c-0.733,1.27-1.014,1.83-1.014,1.83c-0.56,1.115-1.971,1.664-3.136,1.22l-2.125-0.809
		c-1.166-0.444-2.482,0.147-2.926,1.313l-1.611,4.235c-0.444,1.166,0.147,2.483,1.313,2.926l2.123,0.808
		c1.166,0.444,1.877,1.798,1.581,3.01l-0.931,4.629c-0.192,1.232-1.37,2.207-2.617,2.165l-2.275-0.076
		c-1.247-0.042-2.3,0.944-2.342,2.191l-0.151,4.529c-0.042,1.247,0.944,2.3,2.191,2.342l2.289,0.076
		c1.247,0.042,2.36,1.092,2.475,2.333l0.627,4.67c0.218,1.228-0.58,2.532-1.773,2.897l-2.205,0.674
		c-1.192,0.365-1.87,1.641-1.504,2.832l1.986,6.512l12.232-3.783c-5.606-13.69-5.041-29.737,2.931-43.541
		c7.97-13.803,21.586-22.315,36.247-24.304l-2.838-12.484l-6.631,1.534c-1.216,0.28-1.981,1.503-1.701,2.719l0.518,2.247
		c0.28,1.215-0.45,2.558-1.623,2.983l-4.359,1.792c-1.133,0.521-2.599,0.082-3.258-0.978l-1.21-1.944
		c-0.659-1.059-2.065-1.386-3.124-0.727l-3.847,2.394c-1.059,0.659-1.386,2.064-0.727,3.124l1.203,1.933
		c0.659,1.059,0.404,2.566-0.566,3.349l-3.544,3.12c-0.901,0.862-2.431,0.923-3.397,0.135l-1.761-1.435
		c-0.967-0.788-2.402-0.642-3.19,0.326l-2.862,3.513c-0.788,0.967-0.642,2.403,0.326,3.19l1.763,1.437
		c0.967,0.788,1.197,2.285,0.511,3.326C59.096,52.123,58.766,52.62,58.033,53.89z"/>
</g>
<g>
	<path fill="#00529C" d="M105.242,135.723c1.466,0,2.092-0.037,2.092-0.037c1.245-0.072,2.427,0.875,2.625,2.107l0.362,2.244
		c0.198,1.23,1.368,2.076,2.601,1.877l4.473-0.721c1.231-0.199,2.076-1.369,1.878-2.602l-0.362-2.24
		c-0.198-1.232,0.618-2.525,1.816-2.875l4.474-1.508c1.163-0.449,2.597,0.082,3.184,1.184l1.071,2.008
		c0.588,1.1,1.969,1.52,3.069,0.932l3.997-2.133c1.101-0.588,1.521-1.969,0.933-3.068l-1.078-2.02
		c-0.588-1.102-0.235-2.592,0.783-3.311l3.731-2.879c0.955-0.803,2.483-0.764,3.396,0.086l1.687,1.572
		c0.913,0.85,2.355,0.799,3.205-0.113l4.646-4.975l-9.392-8.703c-9.054,11.701-23.234,19.234-39.173,19.234
		c-15.94-0.002-30.119-7.537-39.171-19.238l-9.393,8.699l4.645,4.977c0.85,0.912,2.292,0.963,3.205,0.113l1.687-1.572
		c0.913-0.85,2.441-0.889,3.396-0.086l3.731,2.879c1.018,0.721,1.371,2.211,0.783,3.311l-1.079,2.021
		c-0.587,1.1-0.168,2.48,0.933,3.068l3.997,2.133c1.1,0.588,2.481,0.168,3.068-0.932l1.072-2.008c0.587-1.1,2.02-1.633,3.184-1.184
		l4.474,1.51c1.197,0.35,2.014,1.643,1.815,2.875l-0.362,2.242c-0.199,1.23,0.646,2.4,1.877,2.6l4.473,0.723
		c1.231,0.199,2.402-0.646,2.601-1.879l0.362-2.244c0.199-1.23,1.38-2.18,2.625-2.105
		C103.181,135.686,103.776,135.723,105.242,135.723z"/>
</g>
<g>
	<path fill="#00529C" d="M152.508,53.922c-0.732-1.27-1.077-1.793-1.077-1.793c-0.687-1.042-0.456-2.539,0.511-3.326l1.764-1.437
		c0.967-0.788,1.113-2.223,0.326-3.19l-2.861-3.513c-0.788-0.968-2.224-1.114-3.191-0.326l-1.76,1.434
		c-0.968,0.788-2.496,0.727-3.398-0.135l-3.543-3.121c-0.971-0.783-1.226-2.29-0.566-3.349l1.203-1.933
		c0.659-1.059,0.333-2.464-0.727-3.124l-3.846-2.395c-1.06-0.659-2.465-0.333-3.125,0.727l-1.21,1.944
		c-0.659,1.059-2.125,1.498-3.258,0.977l-4.359-1.793c-1.173-0.426-1.902-1.769-1.622-2.984l0.518-2.247
		c0.28-1.215-0.485-2.439-1.7-2.719l-6.632-1.535l-2.84,12.484c14.66,1.99,28.274,10.504,36.243,24.309
		c7.969,13.804,8.532,29.852,2.925,43.541l12.23,3.783l1.987-6.51c0.365-1.191-0.312-2.467-1.504-2.832l-2.205-0.676
		c-1.192-0.365-1.99-1.668-1.772-2.896l0.628-4.669c0.114-1.242,1.229-2.292,2.476-2.333l2.289-0.076
		c1.246-0.042,2.232-1.096,2.19-2.342l-0.149-4.529c-0.041-1.247-1.096-2.233-2.342-2.191l-2.275,0.076
		c-1.246,0.041-2.424-0.934-2.616-2.166l-0.931-4.629c-0.296-1.211,0.416-2.566,1.582-3.009l2.123-0.807
		c1.166-0.444,1.757-1.76,1.313-2.926l-1.61-4.235c-0.444-1.166-1.76-1.757-2.926-1.313l-2.126,0.808
		c-1.165,0.443-2.576-0.106-3.136-1.221C153.507,55.726,153.241,55.192,152.508,53.922z"/>
</g>
<g>
	<path fill="#00529C" d="M34.392,52.852c-0.032,0.064-0.05,0.1-0.05,0.1S34.359,52.918,34.392,52.852z"/>
</g>
<g>
	<path fill="#00529C" d="M53.89,27.167l0.171,0.209c0.536-0.372,2.364-1.689,4.605-2.319C71.001,21.59,70.386,17.325,75.6,14.792
		l-0.158-0.256c-0.52,0.326-2.122,1.259-4.347,1.287C56.623,16.005,57.723,24.448,53.89,27.167z"/>
</g>
<g>
	<path fill="#00529C" d="M39.506,43.228l0.265,0.171c2.935-3.257,5.759-3.866,6.235-4.006C57.49,35.996,61.497,28.4,64.603,26.238
		l-0.115-0.173c-4.24,3.01-9.29-0.04-17.885,9.143c-0.051,0.055-0.292-0.273-0.292-0.273c6.97-8.42,7.146-14.137,10.375-17.267
		l-0.171-0.155C36.177,29.636,45.103,36.276,39.506,43.228z"/>
</g>
<g>
	<path fill="#00529C" d="M40.351,29.16C21.18,48.154,33.112,53.011,30.109,62.462l0.19,0.083c1.726-4.006,6.174-5.762,6.288-5.815
		c8.12-3.745,10.67-13.199,13.919-16.08l-0.164-0.151c-3.964,4.308-10.516,1.889-15.823,12.546c-0.018,0.035-0.362-0.17-0.356-0.182
		c4.303-9.283,2.29-17.682,6.382-23.463C40.477,29.297,40.405,29.21,40.351,29.16z"/>
</g>
<g>
	<path fill="#00529C" d="M26.424,87.68l0.284,0.014c-0.07-1.08-0.362-5.614,4.157-9.794c9.107-8.424,7.558-15.924,11.289-21.71
		l-0.282-0.156c-2.9,4.942-13.5,10.343-13.945,17.94c0,0.01-0.405-0.035-0.402-0.061c1.547-10.887-4.203-18.137-1.065-25.034
		c-0.104-0.07-0.208-0.128-0.279-0.157C14.022,73.725,24.123,73.375,26.424,87.68z"/>
</g>
<g>
	<path fill="#00529C" d="M31.113,111.445l0.299-0.105c-2.516-5.652,1.689-13.369,1.88-13.74c5.531-10.724,3.681-20.424,4.942-23.81
		l-0.263-0.073c-2.949,7.359-11.148,11.359-9.873,23.731c0.002,0.021-0.396,0.023-0.4-0.002c-1.292-7.67-9.992-15.037-9.713-23.415
		c-0.049-0.006-0.101-0.011-0.147-0.011C12.423,103.773,27.873,103.574,31.113,111.445z"/>
</g>
<g>
	<path fill="#00529C" d="M43.491,133.475l0.206-0.166c-5.158-6.268-3.591-13.096-3.505-13.592
		c2.57-14.842-2.234-17.514-2.344-24.233h-0.25c-0.218,7.513-7.912,15.966-0.927,26.476l-0.337,0.215
		c-7.695-11.23-13.799-8.484-17.398-19.656c-0.001,0-0.003,0-0.004,0c-0.111,0-0.251,0.051-0.32,0.092
		C24.022,135.324,38.573,125.424,43.491,133.475z"/>
</g>
<g>
	<path fill="#00529C" d="M73.523,147.744l-0.065-0.303c-10.135,2.033-15.313,0.088-17.153-9.234
		c-2.582-13.084-11.482-18.133-12.522-23.363c-0.006,0-0.012,0-0.019,0c-0.149,0-0.224,0.023-0.251,0.039
		c0,0.002,0.001,0.004,0.001,0.006c1.909,9.234-2.591,14.734,8.555,25.795l-0.303,0.262c-10.726-8.504-18.092-5.371-22.354-11.281
		c-0.085,0.07-0.156,0.143-0.181,0.189C42.522,151.924,56.772,153.123,73.523,147.744z"/>
</g>
<g>
	<path fill="#00529C" d="M48.477,151.541l0.083-0.115c13.636,7.953,27.89-3.133,45.156-3.529c4.332-0.1,17.287,0.684,29.176,14.504
		l-3.156,0.902c-3.93-6.824-9.99-11.758-15.485-13.131c-15.71-3.928-16.016,10.721-33.462,10.947
		C57.841,161.287,48.985,152.057,48.477,151.541z"/>
</g>
<g>
	<path fill="#00529C" d="M175.945,52.852c0.031,0.064,0.05,0.1,0.05,0.1S175.978,52.918,175.945,52.852z"/>
</g>
<g>
	<path fill="#00529C" d="M175.945,52.852c0.031,0.064,0.05,0.1,0.05,0.1S175.978,52.918,175.945,52.852z"/>
</g>
<g>
	<path fill="#00529C" d="M34.392,52.852c-0.032,0.064-0.05,0.1-0.05,0.1S34.359,52.918,34.392,52.852z"/>
</g>
<g>
	<path fill="#00529C" d="M175.945,52.852c0.031,0.064,0.05,0.1,0.05,0.1S175.978,52.918,175.945,52.852z"/>
</g>
<g>
	<path fill="#00529C" d="M156.447,27.167l-0.172,0.209c-0.535-0.372-2.364-1.689-4.605-2.319
		c-12.335-3.467-11.719-7.732-16.934-10.265l0.158-0.256c0.52,0.326,2.122,1.259,4.347,1.287
		C153.713,16.005,152.614,24.448,156.447,27.167z"/>
</g>
<g>
	<path fill="#00529C" d="M170.83,43.228l-0.265,0.171c-2.935-3.257-5.76-3.866-6.235-4.006
		c-11.483-3.397-15.49-10.993-18.596-13.155l0.115-0.173c4.239,3.01,9.289-0.04,17.885,9.143c0.051,0.055,0.291-0.273,0.291-0.273
		c-6.971-8.42-7.146-14.137-10.374-17.267l0.171-0.155C174.16,29.636,165.233,36.276,170.83,43.228z"/>
</g>
<g>
	<path fill="#00529C" d="M169.986,29.16c19.171,18.995,7.238,23.851,10.24,33.302l-0.189,0.083
		c-1.726-4.006-6.174-5.762-6.288-5.815c-8.12-3.745-10.67-13.199-13.919-16.08l0.164-0.151c3.965,4.308,10.516,1.889,15.823,12.546
		c0.018,0.035,0.362-0.17,0.356-0.182c-4.303-9.283-2.289-17.682-6.382-23.463C169.859,29.297,169.932,29.21,169.986,29.16z"/>
</g>
<g>
	<path fill="#00529C" d="M183.912,87.68l-0.283,0.014c0.069-1.08,0.361-5.614-4.158-9.794c-9.106-8.424-7.557-15.924-11.288-21.71
		l0.281-0.156c2.9,4.942,13.5,10.343,13.944,17.94c0.001,0.01,0.406-0.035,0.402-0.061c-1.547-10.887,4.203-18.137,1.065-25.034
		c0.104-0.07,0.209-0.128,0.279-0.157C196.314,73.725,186.214,73.375,183.912,87.68z"/>
</g>
<g>
	<path fill="#00529C" d="M179.224,111.445l-0.299-0.105c2.516-5.652-1.689-13.369-1.88-13.74
		c-5.531-10.724-3.681-20.424-4.942-23.81l0.263-0.073c2.949,7.359,11.148,11.359,9.873,23.731c-0.002,0.021,0.396,0.023,0.4-0.002
		c1.292-7.67,9.992-15.037,9.713-23.415c0.049-0.006,0.1-0.011,0.146-0.011C197.914,103.773,182.464,103.574,179.224,111.445z"/>
</g>
<g>
	<path fill="#00529C" d="M166.846,133.475l-0.206-0.166c5.157-6.268,3.591-13.096,3.505-13.592
		c-2.57-14.842,2.234-17.514,2.344-24.233h0.25c0.218,7.513,7.912,15.966,0.928,26.476l0.337,0.215
		c7.695-11.23,13.8-8.484,17.398-19.656c0.002,0,0.003,0,0.005,0c0.11,0,0.25,0.051,0.32,0.092
		C186.314,135.324,171.764,125.424,166.846,133.475z"/>
</g>
<g>
	<path fill="#00529C" d="M136.813,147.744l0.065-0.303c10.135,2.033,15.313,0.088,17.153-9.234
		c2.582-13.084,11.481-18.133,12.522-23.363c0.006,0,0.012,0,0.019,0c0.149,0,0.225,0.023,0.251,0.039
		c0,0.002-0.001,0.004-0.001,0.006c-1.909,9.234,2.591,14.734-8.555,25.795l0.303,0.262c10.726-8.504,18.093-5.371,22.354-11.281
		c0.085,0.07,0.156,0.143,0.181,0.189C167.814,151.924,153.564,153.123,136.813,147.744z"/>
</g>
<g>
	<path fill="#00529C" d="M161.859,151.541l-0.083-0.115c-13.637,7.953-27.89-3.133-45.157-3.529
		c-4.331-0.1-17.286,0.684-29.176,14.504l3.157,0.902c3.93-6.824,9.99-11.758,15.485-13.131
		c15.709-3.928,16.016,10.721,33.462,10.947C152.495,161.287,161.352,152.057,161.859,151.541z"/>
</g>
<g>
	<path fill="#00529C" d="M34.392,52.852c-0.032,0.064-0.05,0.1-0.05,0.1S34.359,52.918,34.392,52.852z"/>
</g>
<g>
	<path fill="#00529C" d="M34.392,52.852c-0.032,0.064-0.05,0.1-0.05,0.1S34.359,52.918,34.392,52.852z"/>
</g>
<g>
	<path fill="#00529C" d="M175.945,52.852c0.031,0.064,0.05,0.1,0.05,0.1S175.978,52.918,175.945,52.852z"/>
</g>
<g>
	<path fill="#00529C" d="M126.391,53.275h-0.238c-6.371,0-12.505,4.105-15.549,10.935c-1.549,3.476-1.904,8.001-1.908,12.355
		c0.004,4.35,0.359,8.873,1.908,12.348c3.044,6.835,9.178,11.507,15.549,11.507h0.238c6.371,0,12.501-4.672,15.545-11.507
		c1.548-3.475,1.904-7.998,1.911-12.348c-0.007-4.354-0.363-8.879-1.911-12.355C138.892,57.381,132.762,53.275,126.391,53.275z
		 M136.196,76.84c-0.013,4.092-0.11,7.615-0.11,7.615c-0.257,3.342-0.307,6.699-1.859,8.982c-1.76,2.594-4.568,3.949-7.385,3.949
		l-0.11,0.037h-0.359l-0.106-0.037c-2.82,0-5.63-1.355-7.391-3.949c-1.548-2.283-1.604-5.64-1.861-8.982
		c0,0-0.099-3.484-0.106-7.543v-0.184c0.008-4.092,0.106-7.617,0.106-7.617c0.257-3.342,0.31-6.696,1.861-8.982
		c1.757-2.594,4.566-3.948,7.387-3.948l0.106-0.035h0.358l0.107,0.035c2.82,0,5.633,1.354,7.389,3.948
		c1.554,2.287,1.606,5.64,1.863,8.982c0,0,0.098,3.485,0.11,7.542V76.84z"/>
</g>
<g>
	<path fill="#00529C" d="M131.164,102.371c0,0-1.249,3.246-3.57,5.24c-1.275,1.096-3.164,1.383-4.667,1.557l-15.683,0.777h-3.463
		c0,0-2.628-0.148-2.771-2.592V52.408c0.143-2.443,2.771-2.591,2.771-2.591h3.463v-3.201H86.273v3.201h3.465
		c0,0,2.626,0.148,2.77,2.591v54.946c-0.144,2.443-2.77,2.592-2.77,2.592h-3.465v3.203h20.971l22.709,0.086l2.79-10.133v-0.365
		L131.164,102.371z"/>
</g>
<g>
	<path fill="#00529C" d="M81.891,59.316c0.12-2.039,2.314-2.163,2.314-2.163h2.889v-2.671H69.595v2.671h2.892
		c0,0,2.191,0.124,2.312,2.163v35.131c-0.12,2.039-2.312,2.162-2.312,2.162h-2.892v2.674h17.499v-2.674h-2.889
		c0,0-2.194-0.123-2.314-2.162V59.316z"/>
</g>
</svg>
